<?xml version="1.0" encoding="UTF-8"?>
<svg version="1.1" xmlns="http://www.w3.org/2000/svg" width="1080" height="1080">
<path d="M0 0 C4.39964402 3.61079842 7.29312802 7.25945967 9.67578125 12.421875 C9.67578125 13.411875 9.67578125 14.401875 9.67578125 15.421875 C10.33578125 15.421875 10.99578125 15.421875 11.67578125 15.421875 C12.54376083 26.57701993 11.13621037 32.97197215 3.9296875 41.484375 C0.55113792 45.09618746 -2.70013035 47.50457005 -7.32421875 49.421875 C-6.20273438 49.46054687 -6.20273438 49.46054687 -5.05859375 49.5 C2.98810217 49.96342228 2.98810217 49.96342228 6.30078125 52.171875 C7.88744202 54.76822899 8.60125873 56.3664515 8.67578125 59.421875 C6.44476895 64.46262084 2.90923299 66.66238751 -1.63671875 69.421875 C-2.35093994 69.85830322 -3.06516113 70.29473145 -3.80102539 70.74438477 C-21.82044606 81.43062216 -42.12706056 82.86823916 -62.57080078 84.17919922 C-65.10886128 84.34329653 -67.64631218 84.51706305 -70.18310547 84.69970703 C-146.67794327 90.19082589 -223.79684592 86.57951165 -299.32421875 73.421875 C-299.65421875 76.721875 -299.98421875 80.021875 -300.32421875 83.421875 C-298.92558594 83.54046875 -297.52695312 83.6590625 -296.0859375 83.78125 C-288.05145444 84.51247105 -280.03923756 85.44158646 -272.02285767 86.34625244 C-252.94851876 88.4988795 -252.94851876 88.4988795 -233.85546875 90.4765625 C-180.02416437 95.82240876 -126.27046847 102.47180794 -72.69921875 109.984375 C-71.52521515 110.14813629 -70.35121155 110.31189758 -69.14163208 110.48062134 C-65.89692068 110.93553341 -62.65332176 111.39748895 -59.41015625 111.86328125 C-58.49055618 111.99301331 -57.57095612 112.12274536 -56.62348938 112.25640869 C-42.9973879 114.2506566 -42.9973879 114.2506566 -38.82421875 117.171875 C-36.89377623 120.06753877 -37.01419093 122.01156898 -37.32421875 125.421875 C-37.98421875 125.421875 -38.64421875 125.421875 -39.32421875 125.421875 C-39.32421875 126.081875 -39.32421875 126.741875 -39.32421875 127.421875 C-46.90358802 130.79663066 -54.3339192 133.05614543 -62.44921875 134.671875 C-63.25907227 134.83461914 -64.06892578 134.99736328 -64.90332031 135.16503906 C-76.31147596 137.32557035 -87.68022319 137.62687754 -99.26171875 137.609375 C-100.00542725 137.60877075 -100.74913574 137.6081665 -101.51538086 137.60754395 C-169.06598368 137.45999068 -238.62373164 124.60608151 -302.88061523 104.12988281 C-305.22036652 103.32911053 -305.22036652 103.32911053 -307.32421875 103.421875 C-307.98421875 104.741875 -308.64421875 106.061875 -309.32421875 107.421875 C-308.64939453 107.5775293 -307.97457031 107.73318359 -307.27929688 107.89355469 C-299.10605977 109.85087299 -291.14672515 112.32774161 -283.15924072 114.91738892 C-248.43087381 126.13872639 -213.26188179 135.92673484 -178.01171875 145.359375 C-176.82825867 145.67610168 -175.64479858 145.99282837 -174.42547607 146.31915283 C-163.31761973 149.28667832 -152.20548974 152.22869777 -141.046875 155 C-140.2972197 155.18748306 -139.54756439 155.37496613 -138.77519226 155.56813049 C-135.46946818 156.39433452 -132.16270127 157.20658788 -128.84643555 157.98999023 C-127.75113525 158.26012939 -126.65583496 158.53026855 -125.52734375 158.80859375 C-124.60598633 159.02733154 -123.68462891 159.24606934 -122.73535156 159.47143555 C-119.79576641 160.63018454 -118.30175223 161.9712702 -116.32421875 164.421875 C-115.57421875 168.171875 -115.57421875 168.171875 -115.32421875 171.421875 C-126.43014535 180.54460042 -153.3022533 176.12209264 -167.1015625 174.7734375 C-219.15786098 168.57718538 -273.06600733 150.49190138 -320.48168945 128.11108398 C-323.0834323 127.13788668 -324.79041801 127.34692923 -327.32421875 128.421875 C-327.98421875 129.081875 -328.64421875 129.741875 -329.32421875 130.421875 C-316.13809473 136.55638647 -302.89014503 142.52415766 -289.53540039 148.28265381 C-271.96843123 155.85765715 -254.45544893 163.55455368 -236.94830322 171.2666626 C-234.30382709 172.43085211 -231.65860139 173.5933231 -229.01318359 174.75537109 C-224.76829481 176.62037753 -220.52558371 178.49025287 -216.28448486 180.36386108 C-214.69546407 181.06501626 -213.10574919 181.7646007 -211.51531982 182.46255493 C-209.3259572 183.42378318 -207.13924479 184.39079898 -204.953125 185.359375 C-204.30623215 185.64185593 -203.65933929 185.92433685 -202.99284363 186.21537781 C-200.33797093 187.39812385 -198.39938775 188.346706 -196.32421875 190.421875 C-195.75858021 196.64389896 -195.75858021 196.64389896 -197.5625 199.125 C-201.51294512 202.0330882 -207.35500569 200.68366108 -211.96875 200.0703125 C-214.77135634 199.58611404 -217.54446621 199.02353285 -220.32421875 198.421875 C-221.35675781 198.20112305 -222.38929688 197.98037109 -223.453125 197.75292969 C-265.2151295 188.46829632 -309.86359401 171.31229871 -344.421875 145.73828125 C-347.39035606 144.05711494 -347.39035606 144.05711494 -351.1328125 145.13671875 C-354.13739821 146.10445894 -354.13739821 146.10445894 -355.32421875 147.421875 C-354.28265625 148.14890625 -353.24109375 148.8759375 -352.16796875 149.625 C-344.92573585 154.69882818 -337.73750586 159.81801129 -330.69921875 165.171875 C-315.98885921 176.3125901 -300.78268888 186.78551968 -285.02294922 196.38427734 C-282.37962705 197.99883889 -279.7564247 199.64433804 -277.13671875 201.296875 C-276.31816406 201.80992187 -275.49960937 202.32296875 -274.65625 202.8515625 C-267.7148808 207.52565031 -267.7148808 207.52565031 -266.26171875 210.859375 C-266.32421875 213.421875 -266.32421875 213.421875 -267.63671875 216.296875 C-270.57842926 218.62287866 -271.0258519 218.76229019 -274.57421875 218.546875 C-314.21120998 212.31903644 -349.94188605 186.41523364 -376.32421875 157.421875 C-376.65421875 156.761875 -376.98421875 156.101875 -377.32421875 155.421875 C-383.40015437 155.30935767 -389.28867327 155.72927142 -395.32421875 156.421875 C-395.20046875 158.34 -395.20046875 158.34 -395.07421875 160.296875 C-395.14460717 185.17918086 -407.98386483 208.53679043 -424.32421875 226.421875 C-424.98035156 227.16050781 -425.63648438 227.89914062 -426.3125 228.66015625 C-438.72693285 241.92525688 -456.1067411 251.52513606 -473.32421875 256.859375 C-474.06945801 257.09430664 -474.81469727 257.32923828 -475.58251953 257.57128906 C-491.88695773 262.23562294 -509.21467722 261.83338423 -526.01171875 262.046875 C-527.82550522 262.07290298 -527.82550522 262.07290298 -529.67593384 262.09945679 C-536.82439661 262.20179986 -543.97292874 262.2874121 -551.12176228 262.35856342 C-555.33615047 262.40058743 -559.55044015 262.4477927 -563.7647295 262.49875259 C-571.63308218 262.59344987 -579.5012323 262.66222989 -587.37002563 262.70697021 C-590.12227265 262.7232264 -592.87421456 262.74845387 -595.62631226 262.78131104 C-599.4774423 262.82648326 -603.32829477 262.8386614 -607.1796875 262.84765625 C-608.89617493 262.87384285 -608.89617493 262.87384285 -610.64733887 262.90055847 C-616.84769389 262.88372314 -620.59750064 262.58420886 -625.32421875 258.421875 C-621.02381794 253.9781275 -618.78027239 253.30795124 -612.63671875 252.609375 C-604.83475773 251.50065305 -604.83475773 251.50065305 -598.32421875 247.421875 C-592.39108945 236.54447127 -594.14543714 221.95924926 -594.0078125 209.83984375 C-593.98718072 208.28900173 -593.96618294 206.73816454 -593.94483948 205.18733215 C-593.89026003 201.15156018 -593.84057453 197.11574304 -593.79199219 193.07989502 C-593.74130162 188.94319756 -593.68586662 184.80656379 -593.63085938 180.66992188 C-593.52406514 172.5872938 -593.42245337 164.50461162 -593.32421875 156.421875 C-604.36110524 154.6805434 -604.36110524 154.6805434 -615.04345703 156.60058594 C-616.98220425 158.37277412 -618.4072193 160.12885292 -619.88671875 162.296875 C-621.01257358 163.69907011 -622.14148102 165.0988197 -623.2734375 166.49609375 C-623.79470215 167.17720215 -624.3159668 167.85831055 -624.85302734 168.56005859 C-644.08608657 192.89980464 -683.26779435 212.71429615 -713.32421875 218.421875 C-715.76813205 218.65400297 -717.86518612 218.63570392 -720.32421875 218.421875 C-721.32421875 217.421875 -721.32421875 217.421875 -722.01171875 213.796875 C-721.93253378 210.99570655 -721.69820359 209.82016886 -719.76171875 207.7578125 C-717.61147392 206.24218854 -715.41824608 204.84993563 -713.15283203 203.51318359 C-710.20890106 201.75625817 -707.32809734 199.90050307 -704.43481445 198.06176758 C-701.9365041 196.47630611 -699.43172486 194.9014875 -696.92578125 193.328125 C-691.31924497 189.79766347 -685.80366487 186.1462907 -680.32421875 182.421875 C-679.64456055 181.96232422 -678.96490234 181.50277344 -678.26464844 181.02929688 C-655.25124531 165.46275163 -655.25124531 165.46275163 -633.32421875 148.421875 C-635.88881149 146.66142702 -638.32386832 145.28445963 -641.32421875 144.421875 C-644.36263716 145.05568285 -646.64086585 146.58455168 -649.19921875 148.296875 C-649.84246094 148.69390625 -650.48570312 149.0909375 -651.1484375 149.5 C-652.49931996 150.33664121 -653.84267799 151.18552504 -655.17919922 152.04492188 C-689.68470442 174.19505269 -746.30461332 204.68061879 -788.32421875 200.421875 C-791.44921875 198.921875 -791.44921875 198.921875 -793.32421875 197.421875 C-792.73049804 193.4142602 -791.15793093 191.29298221 -788.32421875 188.421875 C-784.66053992 186.30341858 -780.81960007 184.62589369 -776.94921875 182.921875 C-775.79220459 182.40052979 -774.63519043 181.87918457 -773.44311523 181.34204102 C-763.9027754 177.06405937 -754.30807877 172.90703959 -744.7043457 168.77368164 C-733.31776894 163.87144776 -721.9745258 158.87324328 -710.63671875 153.859375 C-708.78328623 153.04052345 -706.92985199 152.22167576 -705.07641602 151.40283203 C-696.93425707 147.80343641 -688.79746688 144.1931421 -680.6796875 140.5390625 C-679.40522284 139.9668097 -678.13072864 139.39462268 -676.85620117 138.82250977 C-674.56898356 137.79407605 -672.28384332 136.76100456 -670.0012207 135.72241211 C-669.01468506 135.27905518 -668.02814941 134.83569824 -667.01171875 134.37890625 C-666.16996094 133.99710205 -665.32820313 133.61529785 -664.4609375 133.22192383 C-662.32421875 132.421875 -662.32421875 132.421875 -659.32421875 132.421875 C-661.30421875 129.946875 -661.30421875 129.946875 -663.32421875 127.421875 C-668.67417593 128.04376493 -673.15003555 129.8093995 -678.07421875 131.859375 C-679.87966589 132.59378285 -681.68568363 133.32678911 -683.4921875 134.05859375 C-684.44528809 134.4457959 -685.39838867 134.83299805 -686.38037109 135.23193359 C-743.89213818 158.47893581 -809.33101857 182.67891181 -872.32421875 174.421875 C-872.81649995 167.16072736 -872.81649995 167.16072736 -870.64941406 163.90820312 C-868.005247 161.08079895 -866.42843028 160.41112414 -862.73046875 159.40234375 C-861.56902344 159.07927246 -860.40757812 158.75620117 -859.2109375 158.42333984 C-857.91600391 158.08704675 -856.62040347 157.75331311 -855.32421875 157.421875 C-854.65793457 157.2483551 -853.99165039 157.07483521 -853.30517578 156.89605713 C-848.69778022 155.69905619 -844.0804687 154.54362262 -839.46118164 153.39352417 C-794.00263201 142.03046504 -749.0228204 128.96916616 -704.2578125 115.15234375 C-702.70549171 114.67368866 -702.70549171 114.67368866 -701.12181091 114.18536377 C-694.15716019 112.0245522 -687.23387693 109.75234351 -680.32421875 107.421875 C-680.65421875 106.101875 -680.98421875 104.781875 -681.32421875 103.421875 C-689.95802579 104.93170658 -698.2295423 107.35920825 -706.62771606 109.81680298 C-771.1352694 128.58727307 -888.34205145 160.59473735 -951.32421875 127.421875 C-950.95345667 120.0066334 -950.95345667 120.0066334 -948.13452148 117.38696289 C-939.23367839 111.16309997 -924.72203765 111.16389098 -914.07421875 109.734375 C-913.16128052 109.61004089 -912.24834229 109.48570679 -911.30773926 109.35760498 C-890.36397692 106.52070533 -869.35369988 104.29532846 -848.34158325 102.03851318 C-823.76828981 99.39814049 -799.24326696 96.49185845 -774.72705078 93.36743164 C-761.18190933 91.64351521 -747.63416027 89.96750028 -734.0703125 88.3984375 C-733.36507887 88.31678156 -732.65984524 88.23512562 -731.93324089 88.15099525 C-725.77285418 87.43828652 -719.61210278 86.72883788 -713.45004272 86.0307312 C-709.76455738 85.61304151 -706.07954023 85.19139865 -702.39453125 84.76953125 C-701.29584213 84.64699982 -700.19715302 84.52446838 -699.06517029 84.39822388 C-698.06800491 84.28364838 -697.07083954 84.16907288 -696.04345703 84.05102539 C-694.7408342 83.90401939 -694.7408342 83.90401939 -693.41189575 83.75404358 C-691.27129752 83.52087871 -691.27129752 83.52087871 -689.32421875 82.421875 C-689.65421875 79.781875 -689.98421875 77.141875 -690.32421875 74.421875 C-700.44466915 74.97594782 -710.35281129 76.37816323 -720.36483765 77.89050293 C-738.95233871 80.67838732 -757.50070411 82.95154786 -776.25128174 84.27471924 C-778.33961231 84.42296777 -780.42734733 84.5782206 -782.51513672 84.73388672 C-951.40759342 97.05565217 -951.40759342 97.05565217 -993.20703125 66.30078125 C-995.82718273 63.97551767 -996.25021088 63.08794584 -996.63671875 59.609375 C-996.25257517 55.6911105 -995.03165558 54.20894233 -992.32421875 51.421875 C-989.78711419 50.15332272 -988.02964282 50.29417393 -985.18823528 50.29044724 C-984.09355047 50.28660609 -982.99886566 50.28276495 -981.87100857 50.2788074 C-980.05222635 50.28010713 -980.05222635 50.28010713 -978.19670105 50.28143311 C-976.91628459 50.27846198 -975.63586813 50.27549086 -974.31665117 50.2724297 C-970.75072476 50.26434118 -967.18481846 50.26256911 -963.61888397 50.26183224 C-959.77760963 50.25998489 -955.9363458 50.25243917 -952.09507751 50.24569702 C-943.69017104 50.23209996 -935.28526933 50.22608683 -926.88035369 50.22168636 C-921.63490367 50.21892622 -916.3894555 50.21468929 -911.14400673 50.21018219 C-896.62849512 50.19798766 -882.112985 50.18768876 -867.59746838 50.1843071 C-866.6679665 50.18408753 -865.73846461 50.18386797 -864.78079601 50.18364175 C-863.38315575 50.18331433 -863.38315575 50.18331433 -861.95728034 50.1829803 C-860.06909509 50.18253683 -858.18090985 50.18209027 -856.29272461 50.18164062 C-854.88780888 50.18130848 -854.88780888 50.18130848 -853.45451102 50.18096963 C-838.27458971 50.17702076 -823.09471638 50.15956488 -807.9148136 50.1362811 C-792.3397633 50.11258355 -776.7647371 50.10010597 -761.18966848 50.09893918 C-752.44083852 50.09802151 -743.69207106 50.09224619 -734.94325829 50.07411957 C-727.49394414 50.05874008 -720.0447118 50.05358535 -712.5953848 50.06185767 C-708.79326452 50.06577186 -704.99130911 50.06479733 -701.18920898 50.05080032 C-697.07024856 50.03577525 -692.95166173 50.04390508 -688.83268738 50.05438232 C-687.62685806 50.04632592 -686.42102874 50.03826952 -685.17865914 50.02996898 C-684.07615109 50.03655882 -682.97364303 50.04314867 -681.83772564 50.0499382 C-680.88685092 50.04934111 -679.93597619 50.04874403 -678.95628709 50.04812884 C-675.78675185 50.49819376 -673.90586478 51.55721102 -671.32421875 53.421875 C-668.9288655 57.47554973 -669.23446702 61.05938131 -669.44921875 65.671875 C-669.81267985 84.36199653 -662.92042112 100.88326732 -650.72265625 114.93359375 C-636.76740825 129.41159534 -619.82576897 137.7302029 -600.05078125 140.48486328 C-598.79088379 140.66139435 -597.53098633 140.83792542 -596.23291016 141.01980591 C-595.27304199 141.15248871 -594.31317383 141.28517151 -593.32421875 141.421875 C-593.27780919 132.78980229 -593.24230582 124.15777275 -593.22059441 115.52560234 C-593.21017225 111.51702329 -593.19604179 107.50852981 -593.17333984 103.5 C-593.1515554 99.62910245 -593.13963833 95.75828705 -593.13446426 91.88733292 C-593.13077855 90.41300286 -593.12358127 88.93867712 -593.11275864 87.46438217 C-593.09816903 85.39396314 -593.09624389 83.32388042 -593.09716797 81.25341797 C-593.09272675 80.07649384 -593.08828552 78.8995697 -593.08370972 77.6869812 C-593.52423663 71.70646921 -595.44484094 67.38839011 -599.4453125 63.03125 C-605.86511036 57.53237948 -613.48729245 56.96750638 -621.63671875 56.890625 C-622.52359375 56.7359375 -623.41046875 56.58125 -624.32421875 56.421875 C-625.69921875 54.390625 -625.69921875 54.390625 -626.32421875 52.421875 C-622.38827683 49.30026589 -619.53663599 48.29878196 -614.53564453 48.28143311 C-613.54928009 48.27572296 -612.56291565 48.27001282 -611.54666138 48.26412964 C-610.46520844 48.26301178 -609.38375549 48.26189392 -608.26953125 48.26074219 C-607.12918427 48.25577728 -605.98883728 48.25081238 -604.81393433 48.24569702 C-601.0256897 48.23104802 -597.23748711 48.22426462 -593.44921875 48.21875 C-590.80859374 48.21299556 -588.16796874 48.20723787 -585.52734375 48.20147705 C-580.68562675 48.19189792 -575.84391876 48.18600779 -571.00219345 48.1829803 C-563.92184526 48.17852734 -556.84169281 48.1611154 -549.76140404 48.1319797 C-544.2655468 48.11016631 -538.76974372 48.10026532 -533.27384377 48.09893918 C-530.00411103 48.09790297 -526.73460065 48.0907509 -523.46490479 48.07411957 C-505.08320432 47.98738746 -487.09206215 48.39609653 -469.57421875 54.609375 C-468.26819702 55.06111084 -468.26819702 55.06111084 -466.93579102 55.52197266 C-439.48001227 65.35484329 -417.25427908 85.00127944 -404.3046875 111.0703125 C-399.80576679 120.62489804 -396.60505576 130.80112975 -396.32421875 141.421875 C-391.00223826 141.60946439 -386.36225146 140.99800458 -381.19921875 139.734375 C-380.45712158 139.55430908 -379.71502441 139.37424316 -378.95043945 139.1887207 C-357.97843974 133.9102075 -341.13650737 123.80852134 -329.32421875 105.421875 C-322.04675696 92.79028061 -318.97278836 80.20210039 -319.3515625 65.578125 C-319.31656136 61.53799284 -318.55039065 58.25366217 -317.32421875 54.421875 C-316.66421875 54.421875 -316.00421875 54.421875 -315.32421875 54.421875 C-315.32421875 53.761875 -315.32421875 53.101875 -315.32421875 52.421875 C-308.29273906 48.90613516 -297.53014327 50.27123408 -289.78277588 50.26365662 C-288.13805884 50.25624965 -288.13805884 50.25624965 -286.46011519 50.24869305 C-282.82139329 50.23345292 -279.18268884 50.22499437 -275.54394531 50.21655273 C-272.92151743 50.20696358 -270.29909106 50.19695291 -267.67666626 50.18655396 C-262.04889899 50.16489841 -256.42112932 50.14671459 -250.79334259 50.13094902 C-242.65670112 50.10815008 -234.52008479 50.0800217 -226.38346478 50.05062974 C-213.17948246 50.00307598 -199.9754898 49.95977908 -186.77148438 49.91918945 C-173.95181475 49.87977211 -161.13215427 49.83833114 -148.3125 49.79418945 C-147.12541779 49.79010304 -147.12541779 49.79010304 -145.91435412 49.78593408 C-141.94383866 49.77225358 -137.97332334 49.75853351 -134.00280809 49.74479377 C-101.10996392 49.63102112 -68.21710066 49.52416971 -35.32421875 49.421875 C-36.27345215 48.95418701 -37.22268555 48.48649902 -38.20068359 48.00463867 C-44.31307292 44.90735713 -48.80648394 40.95500335 -51.60546875 34.62109375 C-54.20969845 26.652717 -53.93172991 18.56850358 -50.1328125 11.0703125 C-45.3299215 3.24434842 -38.89728948 -1.50476002 -30.32421875 -4.578125 C-19.72360683 -7.07445484 -9.14681225 -6.21060866 0 0 Z M-40.1328125 11.640625 C-43.79661053 17.11830337 -44.18189859 21.91253644 -43.32421875 28.421875 C-41.01636881 34.70137368 -36.1885529 39.36005428 -30.32421875 42.421875 C-22.78522427 45.07406617 -16.58377826 44.63700505 -9.32421875 41.421875 C-4.15112386 38.5479334 -0.83225868 35.28715087 1.92578125 30.046875 C3.59439232 24.20673624 2.94490283 19.6413012 0.0703125 14.41015625 C-3.96606007 8.65521609 -9.58194069 4.39805995 -16.32421875 2.421875 C-26.16911956 1.10922156 -33.92163394 3.85453222 -40.1328125 11.640625 Z M-538.32421875 61.421875 C-538.32421875 121.811875 -538.32421875 182.201875 -538.32421875 244.421875 C-521.08428931 248.73185736 -502.72638095 244.493262 -487.38671875 236.265625 C-471.95592947 226.97566002 -465.85075436 209.72423954 -461.51513672 192.96191406 C-453.63465611 160.04886895 -454.80191118 121.46039376 -472.2578125 91.69140625 C-475.27632883 86.91541728 -478.48647466 82.56899577 -482.32421875 78.421875 C-482.96488281 77.72707031 -483.60554687 77.03226563 -484.265625 76.31640625 C-495.745884 65.05398897 -511.4854688 59.69216346 -527.35546875 59.234375 C-531.89950114 59.29721557 -531.89950114 59.29721557 -538.32421875 61.421875 Z " fill="#C81E26" transform="translate(1032.32421875,342.578125)"/>
<path d="M0 0 C0.94681641 0.02578125 1.89363281 0.0515625 2.86914062 0.078125 C6.12754435 0.76358935 7.45182698 1.98458799 9.65625 4.4375 C10.62672714 6.48468993 11.55879237 8.55020131 12.46875 10.625 C14.23943099 13.59538681 16.14633962 16.47617288 18.03125 19.375 C19.07341485 21.02669242 20.11238631 22.68040334 21.1484375 24.3359375 C24.63881699 29.89840345 28.14160714 35.45283299 31.65625 41 C32.201604 41.86592773 32.74695801 42.73185547 33.30883789 43.62402344 C37.84507014 50.77775418 42.63406492 57.64156599 47.46875 64.625 C47.79875 43.835 48.12875 23.045 48.46875 1.625 C50.97372004 0.37251498 52.67728274 0.51125594 55.4765625 0.52734375 C56.46269531 0.53056641 57.44882812 0.53378906 58.46484375 0.53710938 C59.49738281 0.54548828 60.52992188 0.55386719 61.59375 0.5625 C63.15416016 0.56926758 63.15416016 0.56926758 64.74609375 0.57617188 C67.32036962 0.58798048 69.89453146 0.60444925 72.46875 0.625 C72.58445103 14.26339645 72.67336767 27.90167672 72.72781086 41.54046345 C72.75393708 47.87309886 72.78939122 54.20539924 72.84594727 60.5378418 C72.90015777 66.64568067 72.93014773 72.75319672 72.94313622 78.86125755 C72.95239572 81.19496941 72.97047678 83.52866302 72.99740028 85.86223793 C73.03354373 89.1238018 73.03870136 92.38402101 73.03637695 95.64575195 C73.05435333 96.61679367 73.07232971 97.58783539 73.09085083 98.58830261 C73.0718902 101.03684916 73.01882245 103.23927743 72.46875 105.625 C69.02550699 108.69269095 66.24322935 108.99469522 61.71875 108.875 C60.27242187 108.85179687 60.27242187 108.85179687 58.796875 108.828125 C57.14945313 108.72757813 57.14945313 108.72757813 55.46875 108.625 C54.43476074 108.72470093 54.43476074 108.72470093 53.37988281 108.82641602 C50.67715217 108.90805978 48.97249546 108.6844387 46.46875 107.625 C42.90333035 103.85577303 40.36967688 99.48970499 37.71875 95.0625 C36.91473703 93.77030329 36.10746167 92.48013138 35.29711914 91.19189453 C33.57781535 88.45417444 31.87242924 85.70842708 30.17431641 82.95751953 C26.01984527 76.26358208 21.65717015 69.70497651 17.31408691 63.13259888 C15.06526525 59.72607181 12.82810371 56.31190913 10.58984375 52.8984375 C8.55802459 49.80150367 6.52335284 46.70690426 4.46875 43.625 C4.46066315 44.3972995 4.45257629 45.169599 4.44424438 45.96530151 C4.36638453 53.23460497 4.27912048 60.50370519 4.18122292 67.77276421 C4.1312233 71.51009262 4.08489389 75.24739226 4.046875 78.98486328 C4.01006805 82.59004325 3.96372123 86.19498459 3.91068649 89.79996109 C3.89211798 91.17706248 3.87701912 92.55421506 3.86540604 93.93139267 C3.84858626 95.85654401 3.81841518 97.78156483 3.78759766 99.70654297 C3.77427399 100.80352509 3.76095032 101.9005072 3.7472229 103.0307312 C3.46875 105.625 3.46875 105.625 1.46875 107.625 C-5.46125 107.625 -12.39125 107.625 -19.53125 107.625 C-19.53125 72.645 -19.53125 37.665 -19.53125 1.625 C-14.02015466 -1.13054767 -6.02688897 -0.16428839 0 0 Z " fill="#BD1D24" transform="translate(292.53125,634.375)"/>
<path d="M0 0 C4.36813002 0.17781026 7.95794791 0.34079337 11.56445312 2.96459961 C15.56820669 7.51572411 18.15154779 12.93989419 20.82421875 18.34106445 C23.64191265 23.76270214 27.06752135 28.79467925 30.4140625 33.90014648 C31.6454414 35.82581698 32.87457392 37.75292562 34.1015625 39.68139648 C39.83401821 48.61239632 45.63040829 57.50221693 51.4140625 66.40014648 C51.7440625 45.28014648 52.0740625 24.16014648 52.4140625 2.40014648 C54.86681391 1.17377078 56.4646406 1.28599334 59.203125 1.30249023 C60.14414062 1.30571289 61.08515625 1.30893555 62.0546875 1.31225586 C63.03953125 1.32063477 64.024375 1.32901367 65.0390625 1.33764648 C66.03164063 1.3421582 67.02421875 1.34666992 68.046875 1.35131836 C70.5026641 1.36312504 72.95833354 1.37959248 75.4140625 1.40014648 C75.43739308 15.20355536 75.45497604 29.00696118 75.46587467 42.8103857 C75.47110416 49.21913777 75.478203 55.62787663 75.48950195 62.03662109 C75.50032849 68.2157409 75.50633884 74.39484796 75.50893974 80.57397652 C75.51079442 82.93720259 75.51441582 85.30042792 75.51979256 87.66364861 C75.52699988 90.96116545 75.52805357 94.25862896 75.52758789 97.55615234 C75.53118317 98.54373535 75.53477844 99.53131836 75.53848267 100.54882812 C75.537108 101.44210312 75.53573334 102.33537811 75.53431702 103.25572205 C75.53523881 104.0364807 75.5361606 104.81723936 75.53711033 105.62165737 C75.4140625 107.40014648 75.4140625 107.40014648 74.4140625 108.40014648 C66.5583633 110.71685348 58.11144938 111.51774723 50.4140625 108.40014648 C43.29030376 102.11783653 38.86989837 93.30292372 34.27095032 85.10939026 C30.34188997 78.12520612 25.94187106 71.50370143 21.44873047 64.87304688 C17.06742736 58.40660301 12.74678995 51.89923766 8.4140625 45.40014648 C8.0840625 65.53014648 7.7540625 85.66014648 7.4140625 106.40014648 C0.64589641 109.78422953 0.64589641 109.78422953 -2.9609375 109.65014648 C-3.64929688 109.63467773 -4.33765625 109.61920898 -5.046875 109.60327148 C-8.57641301 109.32090844 -12.0732169 108.84576682 -15.5859375 108.40014648 C-15.60926808 94.59673761 -15.62685104 80.79333179 -15.63774967 66.98990726 C-15.64297916 60.5811552 -15.650078 54.17241634 -15.66137695 47.76367188 C-15.67220349 41.58455207 -15.67821384 35.405445 -15.68081474 29.22631645 C-15.68266942 26.86309038 -15.68629082 24.49986505 -15.69166756 22.13664436 C-15.69887488 18.83912752 -15.69992857 15.54166401 -15.69946289 12.24414062 C-15.70305817 11.25655762 -15.70665344 10.26897461 -15.71035767 9.25146484 C-15.708983 8.35818985 -15.70760834 7.46491486 -15.70619202 6.54457092 C-15.70711381 5.76381227 -15.7080356 4.98305361 -15.70898533 4.1786356 C-15.33594431 -1.21316523 -4.00026268 0.10510058 0 0 Z " fill="#C51E26" transform="translate(948.5859375,633.599853515625)"/>
<path d="M0 0 C1.20240326 -0.01606293 2.40480652 -0.03212585 3.64364624 -0.04867554 C9.18007217 -0.0932138 14.71636674 -0.13468235 20.25292969 -0.15722656 C23.16471316 -0.17048841 26.07578285 -0.19819031 28.98730469 -0.23925781 C32.516984 -0.28903693 36.04602314 -0.31340381 39.57603836 -0.32045364 C41.55445339 -0.33030035 43.53270059 -0.3644445 45.51083374 -0.39926147 C57.23763428 -0.3721757 67.64322236 3.01010115 76.27197266 11.19287109 C87.31279048 23.09912119 91.03985194 39.9792975 90.54931641 55.85302734 C89.28166053 71.11846073 85.3519959 86.70232459 73.27197266 97.19287109 C57.61656134 109.11171212 35.32692531 108.53649164 16.49169922 108.39868164 C13.85065354 108.38004423 11.20995325 108.3781754 8.56884766 108.37841797 C6.87874045 108.37351421 5.18863559 108.36769096 3.49853516 108.36083984 C2.32213974 108.35917061 2.32213974 108.35917061 1.12197876 108.35746765 C-2.0861207 108.32926473 -4.66287772 108.21458764 -7.72802734 107.19287109 C-7.72802734 72.21287109 -7.72802734 37.23287109 -7.72802734 1.19287109 C-5.06048812 -0.14089852 -2.98727621 0.03621611 0 0 Z M17.27197266 19.19287109 C17.24884677 28.04169499 17.23105632 36.89050856 17.22016048 45.73935604 C17.21493219 49.84781394 17.20783553 53.95625123 17.1965332 58.06469727 C17.1857024 62.02633938 17.17969541 65.98796162 17.17709541 69.94961739 C17.17524151 71.4643542 17.17162156 72.97908988 17.1662426 74.49381828 C17.15902959 76.60828922 17.15798182 78.72267703 17.15844727 80.8371582 C17.15622665 82.04295029 17.15400604 83.24874237 17.15171814 84.49107361 C16.96372805 87.10961511 16.96372805 87.10961511 18.27197266 88.19287109 C22.24352329 88.4773229 26.22897546 88.4248496 30.20947266 88.44287109 C31.31355469 88.46349609 32.41763672 88.48412109 33.55517578 88.50537109 C42.03754001 88.54545315 49.32555036 87.60457361 56.64697266 83.13037109 C63.85840784 75.06043172 64.46662888 64.83390275 64.52197266 54.50537109 C64.54259766 53.56242188 64.56322266 52.61947266 64.58447266 51.64794922 C64.63837294 41.84483545 62.76032698 32.7615428 55.67041016 25.56787109 C50.21234027 20.56664406 45.24403181 18.92647053 37.77978516 18.99755859 C36.58095703 19.00400391 35.38212891 19.01044922 34.14697266 19.01708984 C32.29072266 19.04222656 32.29072266 19.04222656 30.39697266 19.06787109 C29.13626953 19.07689453 27.87556641 19.08591797 26.57666016 19.09521484 C23.47490225 19.11871301 20.37353614 19.15156775 17.27197266 19.19287109 Z " fill="#C81E26" transform="translate(59.72802734375,634.80712890625)"/>
<path d="M0 0 C1.18682625 0.00539291 1.18682625 0.00539291 2.39762878 0.01089478 C3.22682831 0.01074875 4.05602783 0.01060272 4.91035461 0.01045227 C7.664521 0.01115166 10.41862063 0.01894523 13.17277527 0.02676392 C15.07706668 0.028628 16.98135857 0.03005195 18.88565063 0.03105164 C23.90804865 0.03487754 28.93041794 0.04470843 33.95280457 0.05575562 C39.07365022 0.06596819 44.1945005 0.07054892 49.31535339 0.07559204 C59.37070459 0.08633064 69.42603442 0.10340792 79.48136902 0.12442017 C79.5351748 2.91634221 79.5749457 5.70723427 79.60636902 8.49942017 C79.62312683 9.29348267 79.63988464 10.08754517 79.65715027 10.90567017 C79.67472374 12.97934032 79.58472069 15.05325258 79.48136902 17.12442017 C77.48136902 19.12442017 77.48136902 19.12442017 75.00099182 19.3649292 C73.95730438 19.36048798 72.91361694 19.35604675 71.83830261 19.35147095 C70.65722931 19.35131989 69.47615601 19.35116882 68.2592926 19.35101318 C66.97906219 19.34069061 65.69883179 19.33036804 64.37980652 19.31973267 C62.41970139 19.31548782 62.41970139 19.31548782 60.41999817 19.31115723 C56.94454821 19.30351793 53.46926519 19.28386707 49.99388123 19.26174927 C46.4480668 19.24129712 42.90222542 19.23215687 39.35636902 19.22207642 C32.39796015 19.20062131 25.43968978 19.16543684 18.48136902 19.12442017 C18.81136902 26.05442017 19.14136902 32.98442017 19.48136902 40.12442017 C37.96136902 40.45442017 56.44136902 40.78442017 75.48136902 41.12442017 C75.48136902 47.06442017 75.48136902 53.00442017 75.48136902 59.12442017 C72.91003443 60.41008746 71.08419801 60.24451795 68.20549011 60.23794556 C66.55400467 60.23783226 66.55400467 60.23783226 64.86915588 60.23771667 C63.67642059 60.23255539 62.4836853 60.2273941 61.25480652 60.22207642 C60.03685394 60.22066147 58.81890137 60.21924652 57.56404114 60.2177887 C53.66145912 60.21217655 49.75893379 60.19962196 45.85636902 60.18692017 C43.21574485 60.18190673 40.57511978 60.17734355 37.93449402 60.17324829 C31.45007943 60.16305267 24.96578793 60.14347953 18.48136902 60.12442017 C18.81136902 69.03442017 19.14136902 77.94442017 19.48136902 87.12442017 C39.94136902 87.45442017 60.40136902 87.78442017 81.48136902 88.12442017 C81.48136902 94.06442017 81.48136902 100.00442017 81.48136902 106.12442017 C78.296747 107.71673117 74.85626369 107.25371874 71.35978699 107.23794556 C70.52068787 107.23809158 69.68158875 107.23823761 68.81706238 107.23838806 C66.03586771 107.23768985 63.25473953 107.22990172 60.47355652 107.22207642 C58.54827409 107.22021191 56.6229912 107.21878816 54.69770813 107.2177887 C49.62436112 107.21396608 44.55104263 107.20413795 39.47770691 107.19308472 C34.30315029 107.18286512 29.12858907 107.1782899 23.95402527 107.17324829 C13.79646064 107.16251547 3.6389172 107.14544209 -6.51863098 107.12442017 C-6.54196156 93.32101129 -6.55954452 79.51760547 -6.57044315 65.71418095 C-6.57567264 59.30542888 -6.58277148 52.89669002 -6.59407043 46.48794556 C-6.60489697 40.30882575 -6.61090732 34.12971869 -6.61350822 27.95059013 C-6.6153629 25.58736406 -6.61898431 23.22413873 -6.62436104 20.86091805 C-6.63156837 17.5634012 -6.63262205 14.2659377 -6.63215637 10.96841431 C-6.63575165 9.9808313 -6.63934692 8.99324829 -6.64305115 7.97573853 C-6.64167648 7.08246353 -6.64030182 6.18918854 -6.6388855 5.2688446 C-6.63980729 4.48808595 -6.64072908 3.70732729 -6.64167881 2.90290928 C-6.36606288 -1.08074434 -3.27728158 0.00628705 0 0 Z " fill="#C21D25" transform="translate(718.5186309814453,634.8755798339844)"/>
<path d="M0 0 C1.46953125 0.00966797 1.46953125 0.00966797 2.96875 0.01953125 C3.98453125 0.03628906 5.0003125 0.05304687 6.046875 0.0703125 C7.078125 0.07933594 8.109375 0.08835937 9.171875 0.09765625 C11.71377787 0.12119239 14.2552078 0.15407227 16.796875 0.1953125 C21.89491728 10.96486513 26.74600107 21.82580177 31.484375 32.7578125 C32.20825508 34.42446713 32.93229908 36.09105057 33.65649414 37.75756836 C34.80704094 40.40549223 35.95733905 43.05352249 37.10679626 45.70191956 C39.69349474 51.66095971 42.28847847 57.61632948 44.88871765 63.56947327 C46.72409602 67.77175184 48.55741571 71.97492703 50.39053345 76.17819214 C51.28242996 78.22211067 52.17514323 80.265673 53.06869507 82.30886841 C54.32295085 85.17752214 55.57394292 88.04757861 56.82421875 90.91796875 C57.19742249 91.76943481 57.57062622 92.62090088 57.95513916 93.49816895 C59.77346892 97.68141761 61.44178627 101.83253414 62.796875 106.1953125 C60.18736264 107.50006868 58.26986215 107.30832822 55.3515625 107.29296875 C53.73701172 107.28813477 53.73701172 107.28813477 52.08984375 107.28320312 C50.96191406 107.27482422 49.83398438 107.26644531 48.671875 107.2578125 C46.96837891 107.25104492 46.96837891 107.25104492 45.23046875 107.24414062 C42.41921862 107.23232865 39.6080727 107.21585757 36.796875 107.1953125 C30.83984375 95.28125 30.83984375 95.28125 29.79443359 93.18261719 C28.88950565 91.37984836 27.96350202 89.58769721 27.03515625 87.796875 C25.796875 85.1953125 25.796875 85.1953125 25.796875 83.1953125 C11.276875 83.1953125 -3.243125 83.1953125 -18.203125 83.1953125 C-19.193125 86.4953125 -20.183125 89.7953125 -21.203125 93.1953125 C-22.01664243 95.37756696 -22.86425723 97.54785324 -23.765625 99.6953125 C-24.17941406 100.695625 -24.59320312 101.6959375 -25.01953125 102.7265625 C-26.25647345 105.30658715 -27.15013708 106.81196667 -29.8984375 107.8125 C-32.97971747 108.32430582 -35.95535675 108.32702813 -39.078125 108.3203125 C-40.27179687 108.32289063 -41.46546875 108.32546875 -42.6953125 108.328125 C-45.95659851 108.20464646 -49.00250834 107.81194507 -52.203125 107.1953125 C-51.59327903 101.75239641 -49.73348591 97.25165704 -47.58203125 92.27734375 C-47.21030289 91.40304214 -46.83857452 90.52874054 -46.45558167 89.62794495 C-45.23147443 86.75202123 -43.99850468 83.87998508 -42.765625 81.0078125 C-41.47472726 77.98098447 -40.1861223 74.95318668 -38.89758301 71.925354 C-38.00959049 69.83921459 -37.12082733 67.75340306 -36.23132324 65.66790771 C-33.16349324 58.47137427 -30.12679903 51.26240504 -27.11328125 44.04296875 C-26.50496208 42.58577171 -26.50496208 42.58577171 -25.88435364 41.09913635 C-24.31816332 37.34536835 -22.75306115 33.59115052 -21.18997192 29.83609009 C-19.160123 24.96118134 -17.12095015 20.09052609 -15.06066895 15.22839355 C-14.27410738 13.36359885 -13.50111726 11.49309493 -12.72949219 9.62207031 C-12.30571289 8.62788086 -11.88193359 7.63369141 -11.4453125 6.609375 C-11.10097168 5.78646973 -10.75663086 4.96356445 -10.40185547 4.11572266 C-7.87954936 0.07489581 -4.46497988 -0.05191837 0 0 Z M3.796875 28.1953125 C1.96007386 32.53538835 0.12709425 36.87705069 -1.70239258 41.22021484 C-2.3250469 42.6968923 -2.94873559 44.17313405 -3.57348633 45.64892578 C-4.47230217 47.77261953 -5.36736296 49.8978623 -6.26171875 52.0234375 C-6.5409166 52.68087952 -6.82011444 53.33832153 -7.10777283 54.01568604 C-9.0315344 58.49071417 -9.0315344 58.49071417 -10.203125 63.1953125 C-9.13283371 64.49076698 -9.13283371 64.49076698 -6.61108398 64.30883789 C-5.48516846 64.30360107 -4.35925293 64.29836426 -3.19921875 64.29296875 C-1.98427734 64.28974609 -0.76933594 64.28652344 0.48242188 64.28320312 C1.76181641 64.27482422 3.04121094 64.26644531 4.359375 64.2578125 C6.28426758 64.25104492 6.28426758 64.25104492 8.24804688 64.24414062 C11.43103522 64.23230795 14.61393262 64.21582318 17.796875 64.1953125 C17.31208576 57.24996457 14.5984589 51.40900596 11.859375 45.0703125 C10.9543289 42.9427501 10.04937755 40.81514738 9.14453125 38.6875 C8.54137085 37.28540283 8.54137085 37.28540283 7.92602539 35.85498047 C6.84759897 33.31479075 5.81207285 30.76133762 4.796875 28.1953125 C4.466875 28.1953125 4.136875 28.1953125 3.796875 28.1953125 Z " fill="#C41E25" transform="translate(859.203125,634.8046875)"/>
<path d="M0 0 C0.93400635 0.00410889 1.8680127 0.00821777 2.83032227 0.01245117 C4.35689453 0.01535156 4.35689453 0.01535156 5.91430664 0.01831055 C6.98100586 0.03055664 8.04770508 0.04280273 9.14672852 0.05541992 C10.20956055 0.05606445 11.27239258 0.05670898 12.36743164 0.05737305 C20.28785122 0.10246082 20.28785122 0.10246082 23.70922852 1.24291992 C24.96656583 3.65703827 26.02957039 5.99566491 27.05297852 8.50854492 C27.3745694 9.27297409 27.69616028 10.03740326 28.02749634 10.82499695 C29.0982863 13.37683031 30.15360419 15.93477988 31.20922852 18.49291992 C31.9566804 20.28186576 32.7052348 22.0703513 33.45483398 23.85839844 C35.04818531 27.66241617 36.63586625 31.46873413 38.2199707 35.27661133 C40.72856325 41.29933735 43.26622027 47.30953942 45.81079102 53.31713867 C46.44201874 54.80792435 46.44201874 54.80792435 47.08599854 56.3288269 C47.92527616 58.31083571 48.76461065 60.29282044 49.60400391 62.27478027 C52.28488374 68.60668966 54.96268489 74.93980652 57.62036133 81.28149414 C59.00965276 84.5948755 60.42257316 87.89671522 61.8527832 91.19262695 C62.51079786 92.7314681 63.16868221 94.27036497 63.82641602 95.80932617 C64.13459259 96.50573715 64.44276917 97.20214813 64.76028442 97.91966248 C66.38927504 101.76759777 66.76159295 103.03346218 65.70922852 107.24291992 C57.45922852 107.24291992 49.20922852 107.24291992 40.70922852 107.24291992 C37.40922852 99.65291992 34.10922852 92.06291992 30.70922852 84.24291992 C16.51922852 84.24291992 2.32922852 84.24291992 -12.29077148 84.24291992 C-15.26077148 91.17291992 -18.23077148 98.10291992 -21.29077148 105.24291992 C-21.95077148 105.24291992 -22.61077148 105.24291992 -23.29077148 105.24291992 C-23.29077148 105.90291992 -23.29077148 106.56291992 -23.29077148 107.24291992 C-30.88077148 107.24291992 -38.47077148 107.24291992 -46.29077148 107.24291992 C-45.35435896 102.56085729 -43.90779687 98.49538549 -42.10717773 94.11401367 C-41.77997742 93.30789139 -41.4527771 92.5017691 -41.11566162 91.67121887 C-40.03249165 89.0058491 -38.94297172 86.34312583 -37.85327148 83.68041992 C-37.0934103 81.81499836 -36.33389441 79.94943612 -35.57470703 78.08374023 C-33.56460609 73.14741962 -31.54878432 68.21345435 -29.53173828 63.27996826 C-27.88234795 59.24337503 -26.23671937 55.20525295 -24.59107971 51.16712952 C-22.59699648 46.2749697 -20.60029452 41.38388027 -18.60327148 36.49291992 C-18.22840607 35.57429169 -17.85354065 34.65566345 -17.46731567 33.709198 C-15.08808599 27.88172403 -12.69823259 22.05879032 -10.29077148 16.24291992 C-9.99120544 15.51806396 -9.6916394 14.79320801 -9.38299561 14.04638672 C-8.56007694 12.06244254 -7.72984703 10.08176788 -6.89624023 8.10229492 C-6.43757568 7.00884766 -5.97891113 5.91540039 -5.50634766 4.78881836 C-3.39157815 0.35965259 -3.39157815 0.35965259 0 0 Z M8.70922852 28.24291992 C4.83133201 35.35949922 1.66669664 42.59633904 -1.16577148 50.18041992 C-1.47587158 50.99679932 -1.78597168 51.81317871 -2.10546875 52.65429688 C-2.39091553 53.43506592 -2.6763623 54.21583496 -2.97045898 55.02026367 C-3.22553223 55.71369873 -3.48060547 56.40713379 -3.7434082 57.12158203 C-4.49897508 59.6846887 -4.49897508 59.6846887 -4.29077148 64.24291992 C4.61922852 64.24291992 13.52922852 64.24291992 22.70922852 64.24291992 C20.26127484 56.89905889 17.74638643 49.59548837 15.14672852 42.30541992 C14.74776367 41.17040039 14.34879883 40.03538086 13.93774414 38.8659668 C13.55166992 37.78508789 13.1655957 36.70420898 12.76782227 35.59057617 C12.42033936 34.61096924 12.07285645 33.6313623 11.71484375 32.62207031 C10.83010058 30.11311301 10.83010058 30.11311301 8.70922852 28.24291992 Z " fill="#C31E25" transform="translate(423.290771484375,634.757080078125)"/>
<path d="M0 0 C4.05100351 4.32623093 7.5986756 9.30594769 8.96484375 15.15234375 C8.55859375 18.42578125 8.55859375 18.42578125 7.96484375 21.15234375 C4.71775181 21.85409131 1.46684123 22.53622444 -1.78515625 23.21484375 C-2.70554687 23.41400391 -3.6259375 23.61316406 -4.57421875 23.81835938 C-5.90839844 24.09389648 -5.90839844 24.09389648 -7.26953125 24.375 C-8.08647461 24.54781494 -8.90341797 24.72062988 -9.74511719 24.89868164 C-12.17011919 25.16729327 -13.75438494 24.99658457 -16.03515625 24.15234375 C-17.125 22.4453125 -17.125 22.4453125 -17.97265625 20.33984375 C-20.35927635 15.15958307 -23.27794345 13.04752763 -28.34765625 10.46484375 C-36.90471827 7.41910981 -43.54489857 7.97579617 -52.03515625 11.15234375 C-57.80677218 14.29111162 -60.11313927 18.64522746 -62.30859375 24.6875 C-66.07096463 37.45124207 -65.95695095 54.09726169 -60.03515625 66.15234375 C-56.29635931 72.45140382 -51.75252103 75.39272395 -44.8046875 77.53125 C-37.70860522 79.12261401 -31.49493259 78.62411782 -25.03515625 75.15234375 C-19.35999747 70.96353608 -16.93241842 64.39489832 -14.03515625 58.15234375 C-13.37515625 58.15234375 -12.71515625 58.15234375 -12.03515625 58.15234375 C-11.70515625 57.49234375 -11.37515625 56.83234375 -11.03515625 56.15234375 C-4.43515625 58.13234375 2.16484375 60.11234375 8.96484375 62.15234375 C7.60485538 73.03225068 3.65033812 80.54393366 -4.34375 88.078125 C-17.52710973 98.238305 -31.88130207 100.46438301 -48.03515625 99.15234375 C-60.88267823 97.35393411 -73.11316509 90.48610388 -81.03515625 80.15234375 C-91.41051312 63.43069213 -93.17666379 45.59374047 -88.9453125 26.5625 C-85.48268379 13.58878816 -77.72365175 2.28749456 -66.41015625 -5.03515625 C-46.16418156 -16.56026208 -17.7565193 -16.12060197 0 0 Z " fill="#C61E26" transform="translate(588.03515625,644.84765625)"/>
<path d="M0 0 C4.51946273 -0.29163613 9.03650492 -0.46839117 13.5625 -0.625 C14.83931641 -0.70878906 16.11613281 -0.79257812 17.43164062 -0.87890625 C26.67993195 -1.11912161 26.67993195 -1.11912161 30.21166992 1.875 C32.06379285 4.49232778 33.52995549 7.1516842 35 10 C36.18611409 11.86943496 37.38819557 13.72882791 38.60546875 15.578125 C39.8018343 17.46726058 40.99583731 19.35789435 42.1875 21.25 C47.50706472 29.68140537 47.50706472 29.68140537 53 38 C56.41591382 33.91679138 59.27312911 29.60578465 62.125 25.125 C63.09291283 23.61664996 64.06168229 22.10884932 65.03125 20.6015625 C65.52109375 19.84004883 66.0109375 19.07853516 66.515625 18.29394531 C68.85636568 14.67657699 71.2356262 11.08537402 73.625 7.5 C74.05055176 6.85949707 74.47610352 6.21899414 74.91455078 5.55908203 C77.87521307 1.12478693 77.87521307 1.12478693 79 0 C80.92667507 -0.08748207 82.85651861 -0.10697334 84.78515625 -0.09765625 C85.95498047 -0.09443359 87.12480469 -0.09121094 88.33007812 -0.08789062 C89.56177734 -0.07951172 90.79347656 -0.07113281 92.0625 -0.0625 C93.91584961 -0.05573242 93.91584961 -0.05573242 95.80664062 -0.04882812 C98.87114117 -0.03699608 101.93554721 -0.02051173 105 0 C101.48605728 6.60922334 97.56012098 12.82335014 93.34375 19.00390625 C92.7189978 19.92662827 92.09424561 20.84935028 91.45056152 21.80003357 C89.47055245 24.72325523 87.4855776 27.64305854 85.5 30.5625 C83.51523758 33.4860536 81.53157192 36.41034143 79.54943848 39.3356781 C78.32124862 41.14776101 77.09144547 42.95875193 75.85974121 44.76844788 C74.74367805 46.41308287 73.63533527 48.06299103 72.5358429 49.71875 C71.5554568 51.17495739 70.54515424 52.61175237 69.49772644 54.02050781 C65.64314295 59.45407371 65.29180185 63.99445148 65.36328125 70.5546875 C65.34771431 72.02882614 65.34771431 72.02882614 65.33183289 73.53274536 C65.30230171 76.64719299 65.30551127 79.7604384 65.3125 82.875 C65.30361374 86.01064757 65.28772898 89.14597767 65.2610321 92.28152466 C65.24608354 94.22684374 65.2423334 96.17228721 65.25080872 98.11764526 C65.24707748 98.99260651 65.24334625 99.86756775 65.23950195 100.76904297 C65.24213799 101.92531693 65.24213799 101.92531693 65.24482727 103.10494995 C65 105 65 105 63 107 C60.66162109 107.22705078 60.66162109 107.22705078 57.7734375 107.1953125 C56.7421875 107.18886719 55.7109375 107.18242188 54.6484375 107.17578125 C53.56820312 107.15902344 52.48796875 107.14226562 51.375 107.125 C50.28703125 107.11597656 49.1990625 107.10695313 48.078125 107.09765625 C45.38519848 107.07403409 42.69270745 107.04109556 40 107 C40.02731201 105.72060547 40.05462402 104.44121094 40.08276367 103.12304688 C40.17070938 98.29921785 40.18414664 93.47737846 40.17700195 88.65283203 C40.1839058 86.57942951 40.21005166 84.50598607 40.25708008 82.43310547 C40.56922638 67.92005621 38.86235057 58.81687948 29.37301636 47.64813232 C27.44731848 45.33657581 25.79807338 42.86910274 24.13671875 40.36328125 C23.56630859 39.52901611 22.99589844 38.69475098 22.40820312 37.83520508 C19.92064576 34.18822292 17.44112689 30.53580214 14.96240234 26.8828125 C12.94936696 23.92561894 10.92217273 20.97844257 8.89453125 18.03125 C7.59582496 16.12536051 6.29762945 14.21912283 5 12.3125 C4.38213623 11.42151611 3.76427246 10.53053223 3.12768555 9.61254883 C2.56992432 8.78779053 2.01216309 7.96303223 1.4375 7.11328125 C0.94121094 6.38923096 0.44492188 5.66518066 -0.06640625 4.91918945 C-1 3 -1 3 0 0 Z " fill="#C61E26" transform="translate(157,635)"/>
<path d="M0 0 C1.25103516 0.00773438 1.25103516 0.00773438 2.52734375 0.015625 C3.39488281 0.03625 4.26242187 0.056875 5.15625 0.078125 C6.45755859 0.08585938 6.45755859 0.08585938 7.78515625 0.09375 C11.37923033 0.13818986 14.22018216 0.18276905 17.65625 1.328125 C17.98625 29.708125 18.31625 58.088125 18.65625 87.328125 C37.13625 87.658125 55.61625 87.988125 74.65625 88.328125 C74.65625 93.938125 74.65625 99.548125 74.65625 105.328125 C72.17963696 107.80473804 70.77294554 107.56304717 67.39396667 107.57696533 C66.29668999 107.5661795 66.29668999 107.5661795 65.17724609 107.55517578 C64.40642197 107.55546783 63.63559784 107.55575989 62.84141541 107.55606079 C60.28739255 107.55466474 57.73365954 107.53909079 55.1796875 107.5234375 C53.41134806 107.51970834 51.64300655 107.51686091 49.87466431 107.51486206 C45.21555905 107.50721793 40.55657806 107.48756278 35.89752197 107.4654541 C31.14524008 107.44501244 26.39293816 107.43586394 21.640625 107.42578125 C12.31244534 107.40431759 2.98435799 107.37017228 -6.34375 107.328125 C-6.47668413 98.19788001 -6.6071889 89.067604 -6.73490143 79.93728447 C-6.79432496 75.69401264 -6.85447136 71.45075409 -6.91650391 67.20751953 C-7.04697292 58.25397317 -7.16751193 49.30044678 -7.26394653 40.34646225 C-7.30588125 36.47922752 -7.35295211 32.61223008 -7.41357422 28.74523926 C-7.46932334 25.18395037 -7.5110913 21.62278244 -7.54173279 18.06119156 C-7.56199304 16.13415676 -7.59727148 14.20729835 -7.63293457 12.28048706 C-7.63998413 11.13750153 -7.64703369 9.99451599 -7.65429688 8.81689453 C-7.66682495 7.82319855 -7.67935303 6.82950256 -7.69226074 5.80569458 C-7.34375 3.328125 -7.34375 3.328125 -5.95166016 1.50735474 C-3.85484397 -0.03043516 -2.58397574 -0.03172536 0 0 Z " fill="#C91E26" transform="translate(623.34375,634.671875)"/>
<path d="M0 0 C4.39964402 3.61079842 7.29312802 7.25945967 9.67578125 12.421875 C9.67578125 13.411875 9.67578125 14.401875 9.67578125 15.421875 C10.33578125 15.421875 10.99578125 15.421875 11.67578125 15.421875 C12.5448521 26.59104476 11.09277308 32.86845131 4 41.44921875 C-2.04799981 48.02554957 -8.85058823 51.03631904 -17.70703125 51.66015625 C-27.99740469 51.86424508 -36.4985552 50.80974719 -44.76171875 44.171875 C-50.48276103 38.65013132 -52.87999261 32.8375518 -53.3515625 24.9296875 C-53.26278837 16.78783133 -50.60490735 10.61182124 -45.32421875 4.421875 C-32.97812519 -7.07276383 -14.28882987 -9.70199541 0 0 Z M-40.1328125 11.640625 C-43.79661053 17.11830337 -44.18189859 21.91253644 -43.32421875 28.421875 C-41.01636881 34.70137368 -36.1885529 39.36005428 -30.32421875 42.421875 C-22.78522427 45.07406617 -16.58377826 44.63700505 -9.32421875 41.421875 C-4.15112386 38.5479334 -0.83225868 35.28715087 1.92578125 30.046875 C3.59439232 24.20673624 2.94490283 19.6413012 0.0703125 14.41015625 C-3.96606007 8.65521609 -9.58194069 4.39805995 -16.32421875 2.421875 C-26.16911956 1.10922156 -33.92163394 3.85453222 -40.1328125 11.640625 Z " fill="#C51E26" transform="translate(1032.32421875,342.578125)"/>
<path d="M0 0 C2.02573282 2.0593085 3.15655857 4.05050931 3.40234375 6.9453125 C3.14249176 10.07508541 2.60944058 12.38491606 0.6640625 14.875 C0.1896875 15.205 -0.2846875 15.535 -0.7734375 15.875 C1.06147438 20.61518901 3.14597709 25.23913251 5.2265625 29.875 C3.12858012 31.73987322 1.50379385 32.79680654 -1.2109375 33.5625 C-4.3819874 32.71173051 -4.62248391 31.93046365 -6.2734375 29.1875 C-6.88251953 28.09888672 -6.88251953 28.09888672 -7.50390625 26.98828125 C-9.23155603 24.11240885 -11.30712186 22.12991716 -13.7734375 19.875 C-13.7115625 21.091875 -13.6496875 22.30875 -13.5859375 23.5625 C-13.60666284 27.45195599 -14.01729932 29.93511927 -16.7734375 32.875 C-19.8984375 33.25 -19.8984375 33.25 -22.7734375 32.875 C-25.24831461 30.40012289 -23.94680982 24.3341888 -23.95898438 20.86523438 C-23.95890381 20.13908936 -23.95882324 19.41294434 -23.95874023 18.66479492 C-23.96092501 16.45016218 -23.97907281 14.23602877 -23.99804688 12.02148438 C-24.00098106 10.61979338 -24.00296569 9.2181 -24.00390625 7.81640625 C-24.00801514 6.53451416 -24.01212402 5.25262207 -24.01635742 3.93188477 C-23.7734375 0.875 -23.7734375 0.875 -21.7734375 -1.125 C-15.32160266 -2.55184809 -5.81322432 -3.68768415 0 0 Z M-13.7734375 4.875 C-14.4612611 7.22867713 -14.4612611 7.22867713 -14.7734375 9.875 C-13.7834375 11.36 -13.7834375 11.36 -12.7734375 12.875 C-10.7934375 12.545 -8.8134375 12.215 -6.7734375 11.875 C-7.04378384 9.43782742 -7.04378384 9.43782742 -7.7734375 6.875 C-10.58853743 4.5976499 -10.58853743 4.5976499 -13.7734375 4.875 Z " fill="#C41E25" transform="translate(1022.7734375,349.125)"/>
<path d="M0 0 C1 2 1 2 0.875 5.1875 C2.42500377 10.44029057 5.02921255 11.64769126 9.6640625 14.3046875 C24.79004645 21.99166295 40.23106779 25.56369456 57.07421875 27.0390625 C58.02012878 27.12284149 58.96603882 27.20662048 59.94061279 27.29293823 C71.19550128 28.2443071 82.46412214 28.72162579 93.75 29.125 C94.88776886 29.16702545 96.02553772 29.2090509 97.19778442 29.25234985 C116.1108562 29.93600994 135.01272922 30.18842512 153.9375 30.1875 C155.73048523 30.18885956 155.73048523 30.18885956 157.55969238 30.19024658 C182.15551537 30.18812325 206.50332667 29.00116428 231 26.8125 C232.81188309 26.65267639 232.81188309 26.65267639 234.66036987 26.48962402 C255.0922898 24.66810012 275.30282958 22.0757401 295.51391602 18.58496094 C299.0026619 17.99955334 302.49618197 17.48622809 306 17 C307.45184478 21.53701494 308.23509196 25.18061476 308 30 C307.01 29.67 306.02 29.34 305 29 C304.67 26.36 304.34 23.72 304 21 C293.8795496 21.55407282 283.97140746 22.95628823 273.9593811 24.46862793 C255.37188004 27.25651232 236.82351464 29.52967286 218.07293701 30.85284424 C215.98460644 31.00109277 213.89687142 31.1563456 211.80908203 31.31201172 C42.91662533 43.63377717 42.91662533 43.63377717 1.1171875 12.87890625 C-1.58121244 10.48420077 -1.95697158 9.67411188 -2.1875 6.0625 C-2 3 -2 3 0 0 Z " fill="#0B0102" transform="translate(38,396)"/>
<path d="M0 0 C19.68109084 2.73671973 19.68109084 2.73671973 27.18603516 4.08105469 C68.64467478 11.46451576 110.96778862 13.1980156 152.98803711 13.13037109 C156.93151702 13.12500814 160.87488286 13.13036028 164.81835938 13.13671875 C181.8989098 13.14163056 198.9364169 12.75421645 216 12 C217.30392197 11.94329132 217.30392197 11.94329132 218.63418579 11.88543701 C252.72834858 10.51105207 252.72834858 10.51105207 285.60546875 2.109375 C289 1 289 1 291 2 C270.77708349 13.32483325 245.28257707 13.47838362 222.6875 14.6875 C221.54224854 14.75003967 220.39699707 14.81257935 219.21704102 14.87701416 C145.84574118 18.75763493 72.3760246 16.16312494 0 3 C0 2.01 0 1.02 0 0 Z " fill="#0C0102" transform="translate(734,413)"/>
<path d="M0 0 C6.16084064 0.66373697 11.8321745 2.32807568 17.75 4.125 C59.42912888 16.43748598 101.59306047 24.400709 144.69842529 29.71411133 C146.92623712 29.99083759 149.15292441 30.27519726 151.37939453 30.5625 C189.91508832 35.51829174 230.90653784 38.37442218 268 25 C268 25.66 268 26.32 268 27 C260.42063073 30.37475566 252.99029955 32.63427043 244.875 34.25 C244.06514648 34.41274414 243.25529297 34.57548828 242.42089844 34.74316406 C231.01274279 36.90369535 219.64399556 37.20500254 208.0625 37.1875 C207.3187915 37.18689575 206.57508301 37.1862915 205.80883789 37.18566895 C147.57905492 37.05847549 88.18368087 26.97160787 32.0625 11.8125 C30.92698196 11.50620667 30.92698196 11.50620667 29.76852417 11.19372559 C19.72292717 8.46623983 9.84134334 5.39335038 0 2 C0 1.34 0 0.68 0 0 Z " fill="#0B0102" transform="translate(725,443)"/>
<path d="M0 0 C1.81883009 2.3832946 3 3.95818337 3 7 C2.01 7 1.02 7 0 7 C-0.66 5.68 -1.32 4.36 -2 3 C-10.63380704 4.50983158 -18.90532355 6.93733325 -27.30349731 9.39492798 C-91.81105065 28.16539807 -209.0178327 60.17286235 -272 27 C-271.4140625 20.84765625 -271.4140625 20.84765625 -271 19 C-270.34 18.67 -269.68 18.34 -269 18 C-269.33 20.31 -269.66 22.62 -270 25 C-267.7026263 25.69874039 -265.40336241 26.39016272 -263.1015625 27.07421875 C-260.96787106 27.71110146 -258.83781473 28.36024983 -256.7109375 29.01953125 C-255.56882812 29.36371094 -254.42671875 29.70789063 -253.25 30.0625 C-251.67992187 30.54396484 -251.67992187 30.54396484 -250.078125 31.03515625 C-239.66987513 33.74163535 -228.95794 34.38919304 -218.25 34.375 C-217.59691864 34.37512085 -216.94383728 34.3752417 -216.27096558 34.37536621 C-171.7024885 34.26213965 -126.71278347 28.35176553 -83 20 C-81.88270508 19.78730469 -80.76541016 19.57460938 -79.61425781 19.35546875 C-56.67985734 14.9299075 -34.18535192 8.71133912 -11.71484375 2.3828125 C-10.84980225 2.13934082 -9.98476074 1.89586914 -9.09350586 1.64501953 C-2.5453709 -0.3724933 -2.5453709 -0.3724933 0 0 Z " fill="#070101" transform="translate(353,443)"/>
<path d="M0 0 C6.33331612 1.98642264 12.3710032 4.37909394 18.4375 7.0625 C59.91317044 25.05619473 103.65351212 39.60916251 148.375 46.8125 C149.06835449 46.92432617 149.76170898 47.03615234 150.47607422 47.15136719 C162.06476116 48.88151697 173.67614501 49.1600615 185.375 49.125 C186.68855469 49.12886719 188.00210938 49.13273438 189.35546875 49.13671875 C191.26392578 49.13478516 191.26392578 49.13478516 193.2109375 49.1328125 C194.34837402 49.13168457 195.48581055 49.13055664 196.65771484 49.12939453 C200.16288419 48.99369404 203.53820651 48.55342531 207 48 C207 48.66 207 49.32 207 50 C202.38890698 51.78084205 198.49045026 52.27874408 193.55859375 52.3359375 C192.84704636 52.34436172 192.13549896 52.35278595 191.40238953 52.36146545 C189.08052841 52.38117938 186.75943103 52.38115242 184.4375 52.375 C183.63689148 52.37412384 182.83628296 52.37324768 182.01141357 52.37234497 C123.20024617 52.16108851 64.66157488 30.64337528 11 8 C8.75176798 7.06138328 6.50307882 6.12386069 4.25390625 5.1875 C2.74485718 4.55908203 2.74485718 4.55908203 1.20532227 3.91796875 C0.47756592 3.61503906 -0.25019043 3.31210937 -1 3 C-0.67 2.01 -0.34 1.02 0 0 Z " fill="#080101" transform="translate(708,466)"/>
<path d="M0 0 C18.30096391 9.06333451 29.42390442 24.84858093 36.59375 43.5625 C41.67019768 58.77033266 43.97765073 74.16683096 43.90625 90.1875 C43.89887817 92.15710693 43.89887817 92.15710693 43.89135742 94.16650391 C43.68433406 111.44817732 41.64495405 141.51129595 28.59375 154.5625 C29.23366162 150.70896628 30.40086077 147.41052008 31.90625 143.8125 C44.62924667 111.15925999 44.50128373 70.65289065 30.66650391 38.40087891 C26.77123592 30.00176926 21.88774036 22.38098956 15.59375 15.5625 C15.0265625 14.94117188 14.459375 14.31984375 13.875 13.6796875 C2.80352765 2.8510106 -13.38792578 -2.40450909 -28.625 -2.53125 C-31.29595558 -2.46502796 -33.78360438 -2.3746076 -36.40625 -1.9375 C-37.39625 -1.7725 -38.38625 -1.6075 -39.40625 -1.4375 C-39.40625 -2.0975 -39.40625 -2.7575 -39.40625 -3.4375 C-27.42414945 -9.1760539 -11.50527826 -4.85543853 0 0 Z " fill="#0B0102" transform="translate(533.40625,405.4375)"/>
<path d="M0 0 C2.19042969 1.10058594 2.19042969 1.10058594 4.421875 2.484375 C5.69212524 3.2587793 5.69212524 3.2587793 6.98803711 4.04882812 C7.89948486 4.61021484 8.81093262 5.17160156 9.75 5.75 C26.99837673 16.11193542 44.62936959 25.23496507 63.1875 33 C63.82686493 33.26772217 64.46622986 33.53544434 65.12496948 33.8112793 C77.93502559 39.14775254 90.8640378 43.88366906 104.25 47.5625 C105.32266113 47.85914551 106.39532227 48.15579102 107.50048828 48.46142578 C126.49298922 53.6677889 126.49298922 53.6677889 146 56 C145.67 56.66 145.34 57.32 145 58 C137.73105689 58.2838199 131.09903305 57.53653568 124 56 C122.96746094 55.77924805 121.93492187 55.55849609 120.87109375 55.33105469 C79.00323756 46.0228881 34.71514638 28.77319543 -0.09765625 3.4140625 C-3.80810608 1.60627941 -6.04816253 2.08234486 -10 3 C-6.50656053 -0.65223217 -4.97947111 -1.34803362 0 0 Z " fill="#080101" transform="translate(688,485)"/>
<path d="M0 0 C2.8125 2.375 2.8125 2.375 5 5 C5 5.66 5 6.32 5 7 C2.49746 6.56852759 1.29927563 6.35368939 -0.375 4.375 C-1.97231731 2.69655242 -1.97231731 2.69655242 -4.5546875 3.19921875 C-8.83424221 4.19389983 -12.70154321 5.75209617 -16.75 7.4375 C-18.55544714 8.17190785 -20.36146488 8.90491411 -22.16796875 9.63671875 C-23.59761963 10.21752197 -23.59761963 10.21752197 -25.05615234 10.81005859 C-82.56791943 34.05706081 -148.00679982 58.25703681 -211 50 C-211.29296875 44.04296875 -211.29296875 44.04296875 -211 42 C-210.01 41.01 -209.02 40.02 -208 39 C-208.33 41.97 -208.66 44.94 -209 48 C-160.27490491 48.75811007 -116.04142275 41.06210156 -70 25 C-68.10662986 24.35597489 -66.21325502 23.71196173 -64.3192749 23.06973267 C-47.92041878 17.49405893 -31.87250039 11.24393513 -15.9519043 4.41894531 C-15.2566011 4.12455063 -14.56129791 3.83015594 -13.84492493 3.52684021 C-11.95937864 2.72807411 -10.07792431 1.9196681 -8.19677734 1.1105957 C-5.14833986 0.0515349 -3.17874044 -0.44626617 0 0 Z " fill="#130303" transform="translate(371,467)"/>
<path d="M0 0 C2.63976671 -0.39285094 4.12110057 -0.3505537 6.65234375 0.5546875 C10.24471714 3.70203553 13.22647093 7.23666422 16.26708984 10.90869141 C39.92751293 39.02264496 77.09389172 57.3927378 112.65234375 64.5546875 C112.32234375 65.2146875 111.99234375 65.8746875 111.65234375 66.5546875 C71.18614957 65.48466794 33.98466467 34.35472988 7.12011719 7.16772461 C5.65234375 5.5546875 5.65234375 5.5546875 4.65234375 3.5546875 C-1.42359187 3.44217017 -7.31211077 3.86208392 -13.34765625 4.5546875 C-13.34765625 3.8946875 -13.34765625 3.2346875 -13.34765625 2.5546875 C-8.91187156 1.62607463 -4.40741089 1.04135166 0 0 Z " fill="#080101" transform="translate(650.34765625,494.4453125)"/>
<path d="M0 0 C0.33 0 0.66 0 1 0 C2.07442406 11.62656124 2.13043467 23.17086249 2.09765625 34.8359375 C2.09578683 36.81132979 2.09436541 38.78672255 2.09336853 40.76211548 C2.08958457 45.91419802 2.0797904 51.06625153 2.06866455 56.21832275 C2.05654335 62.42521566 2.05202854 68.63211837 2.04621124 74.83901978 C2.0365757 84.22603326 2.01739052 93.61298328 2 103 C27.41 103 52.82 103 79 103 C79 103.66 79 104.32 79 105 C52.93 105 26.86 105 0 105 C-0.165 93.40875 -0.33 81.8175 -0.5 69.875 C-0.55220703 66.2847998 -0.60441406 62.69459961 -0.65820312 58.99560547 C-0.86274174 44.53877327 -1.05101503 30.0815894 -1.08811951 15.62320328 C-1.09363259 13.6743187 -1.1034709 11.72544788 -1.11340332 9.77658081 C-1.11400757 8.62714996 -1.11461182 7.47771912 -1.11523438 6.29345703 C-1.11728882 5.28928741 -1.11934326 4.2851178 -1.12145996 3.2505188 C-1 1 -1 1 0 0 Z " fill="#1D0405" transform="translate(617,637)"/>
<path d="M0 0 C0.66 0 1.32 0 2 0 C2 34.32 2 68.64 2 104 C38.77212875 105.17089104 38.77212875 105.17089104 74 98 C75.32851255 97.64794418 76.66024399 97.30650078 78 97 C70.01387003 105.92418333 53.17137188 106.31385048 42 107 C35.10625673 107.24017077 28.20973289 107.25785669 21.3125 107.25 C20.43049927 107.24931519 19.54849854 107.24863037 18.63977051 107.2479248 C16.10996493 107.2414499 13.58049615 107.22509285 11.05078125 107.203125 C10.28294815 107.19873413 9.51511505 107.19434326 8.72401428 107.18981934 C5.55943478 107.14764438 3.02360165 107.00786722 0 106 C0 71.02 0 36.04 0 0 Z " fill="#050001" transform="translate(52,636)"/>
<path d="M0 0 C-24.42592244 12.33740187 -47.65252042 14.28138481 -74.6875 14.625 C-75.89669098 14.64235199 -77.10588196 14.65970398 -78.35171509 14.67758179 C-85.50017786 14.77992486 -92.64870999 14.8655371 -99.79754353 14.93668842 C-104.01193172 14.97871243 -108.2262214 15.0259177 -112.44051075 15.07687759 C-120.30886343 15.17157487 -128.17701355 15.24035489 -136.04580688 15.28509521 C-138.7980539 15.3013514 -141.54999581 15.32657887 -144.30209351 15.35943604 C-148.15322355 15.40460826 -152.00407602 15.4167864 -155.85546875 15.42578125 C-157.57195618 15.45196785 -157.57195618 15.45196785 -159.32312012 15.47868347 C-165.52347514 15.46184814 -169.27328189 15.16233386 -174 11 C-173.67 10.34 -173.34 9.68 -173 9 C-168.25 10.875 -168.25 10.875 -166 12 C-164.2442912 12.09618581 -162.4849035 12.12796023 -160.7265625 12.12939453 C-159.61045593 12.13248627 -158.49434937 12.135578 -157.34442139 12.13876343 C-155.5033078 12.13581772 -155.5033078 12.13581772 -153.625 12.1328125 C-152.34167786 12.13431305 -151.05835571 12.1358136 -149.73614502 12.13735962 C-145.49074279 12.14115276 -141.2453926 12.13346313 -137 12.125 C-135.53788254 12.12272819 -134.07576503 12.12049034 -132.61364746 12.11828613 C-122.81228421 12.10176988 -113.01110917 12.06212803 -103.20986938 12.01115417 C-101.04966532 12.00025068 -98.88945903 11.99050112 -96.72924805 11.9810791 C-88.79814226 11.94528693 -80.86767419 11.88489726 -72.93701172 11.79046631 C-70.51357002 11.76386815 -68.09005211 11.74338155 -65.66650391 11.72955322 C-44.69773824 11.59719687 -23.48492111 10.24551131 -4.78515625 -0.2421875 C-3 -1 -3 -1 0 0 Z " fill="#060001" transform="translate(581,590)"/>
<path d="M0 0 C4.4470241 1.5130105 6.35908258 5.00418177 8.8125 8.75 C9.79019511 10.20714498 10.76806962 11.66416959 11.74609375 13.12109375 C12.26929199 13.90726074 12.79249023 14.69342773 13.33154297 15.50341797 C15.68597139 19.02644768 18.07592956 22.52460765 20.47290039 26.01879883 C21.7560509 27.90342099 23.02450362 29.7981232 24.27905273 31.7019043 C27.21547298 36.12738299 30.09607866 40.24215026 33.8125 44.046875 C48.42117442 59.93907481 44.52363049 83.83593404 44 104 C50.6 104.33 57.2 104.66 64 105 C64 105.33 64 105.66 64 106 C56.41 106 48.82 106 41 106 C41.08314453 101.40578125 41.08314453 101.40578125 41.16796875 96.71875 C41.18422692 93.6966019 41.18147751 90.67501258 41.17700195 87.65283203 C41.1839058 85.57942951 41.21005166 83.50598607 41.25708008 81.43310547 C41.56922638 66.92005621 39.86235057 57.81687948 30.37301636 46.64813232 C28.44731848 44.33657581 26.79807338 41.86910274 25.13671875 39.36328125 C24.28122437 38.1117627 24.28122437 38.1117627 23.40844727 36.83496094 C20.2653571 32.22800852 17.13021865 27.61570646 14 23 C12.99211426 21.5147583 12.99211426 21.5147583 11.96386719 19.99951172 C9.99110017 17.08676809 8.0255865 14.16927438 6.0625 11.25 C5.45301514 10.35063721 4.84353027 9.45127441 4.21557617 8.5246582 C3.6610376 7.69667725 3.10649902 6.86869629 2.53515625 6.015625 C2.044104 5.28633789 1.55305176 4.55705078 1.04711914 3.80566406 C0 2 0 2 0 0 Z " fill="#040000" transform="translate(156,636)"/>
<path d="M0 0 C1.24361238 3.73083714 0.54946902 5.34381202 -0.4375 9.125 C-4.07307903 25.57810882 -2.4853161 41.76970714 5.875 56.625 C12.6898453 66.79564033 22.21408295 73.73418519 34.125 76.9375 C46.92357234 79.39580921 58.91239989 79.0181855 71 74 C72.99574364 73.32069759 74.99478577 72.65081514 77 72 C74.46563702 74.98880048 71.72220176 76.16279579 68.125 77.625 C67.09632813 78.05039062 66.06765625 78.47578125 65.0078125 78.9140625 C52.29159085 83.50511395 36.30588675 82.175801 24 77 C11.06111296 70.39682121 3.33493346 61.40790156 -2 48 C-6.84430893 32.50508279 -6.52783471 15.01401983 0 0 Z " fill="#0A0102" transform="translate(502,663)"/>
<path d="M0 0 C0.99 0.33 1.98 0.66 3 1 C3 34.99 3 68.98 3 104 C44.085 104.495 44.085 104.495 86 105 C86 105.33 86 105.66 86 106 C57.62 106 29.24 106 0 106 C0 71.02 0 36.04 0 0 Z " fill="#110203" transform="translate(712,636)"/>
<path d="M0 0 C3.33749994 1.11249998 3.56932731 1.45350907 5.28515625 4.3046875 C5.72408203 5.01955322 6.16300781 5.73441895 6.61523438 6.47094727 C7.09283203 7.26428467 7.57042969 8.05762207 8.0625 8.875 C13.20626455 17.2206771 18.54589767 25.4180896 24 33.5625 C24.77472608 34.72171571 25.54938454 35.88097661 26.32397461 37.0402832 C29.81010401 42.2541672 33.30823826 47.45979464 36.8203125 52.65625 C37.38492188 53.49470459 37.94953125 54.33315918 38.53125 55.19702148 C39.56622283 56.73315073 40.60506986 58.2666794 41.6484375 59.79711914 C45 64.77570632 45 64.77570632 45 67 C52.26 67 59.52 67 67 67 C67 67.66 67 68.32 67 69 C63.87091851 70.04302716 61.65633042 70.13347889 58.375 70.125 C57.39273438 70.12757813 56.41046875 70.13015625 55.3984375 70.1328125 C54.27695312 70.08898437 53.15546875 70.04515625 52 70 C51.30777344 70.06936768 50.61554688 70.13873535 49.90234375 70.21020508 C47.19979717 70.29070771 45.5011116 70.06506415 43 69 C39.43528022 65.22985569 36.90092822 60.86491635 34.25 56.4375 C33.4452452 55.14384475 32.63723714 53.85220824 31.82617188 52.5625 C30.10624469 49.82324973 28.4001697 47.07600392 26.70117188 44.32373047 C22.56921018 37.66745871 18.22330706 31.15045654 13.90026855 24.61746216 C11.66617115 21.23909827 9.44134296 17.85468971 7.21875 14.46875 C6.83519348 13.88658218 6.45163696 13.30441437 6.05645752 12.7046051 C5.03009386 11.14133074 4.01467689 9.57088507 3 8 C2.12698242 6.65518555 2.12698242 6.65518555 1.23632812 5.28320312 C0 3 0 3 0 0 Z " fill="#0C0202" transform="translate(296,673)"/>
<path d="M0 0 C3.07104413 1.32089667 4.66385973 2.50278959 6.47924805 5.30273438 C6.92525864 5.98031296 7.37126923 6.65789154 7.83079529 7.35600281 C8.30300003 8.09445938 8.77520477 8.83291595 9.26171875 9.59375 C9.76465958 10.36495682 10.2676004 11.13616364 10.78578186 11.93074036 C11.86535546 13.5883103 12.94090174 15.24850882 14.01281738 16.91104126 C15.69474884 19.51120628 17.39683458 22.0970911 19.10449219 24.68041992 C24.20361698 32.4216947 29.1909027 40.16303417 33.69140625 48.26953125 C39.35395547 59.53573565 39.35395547 59.53573565 48.75634766 67.16259766 C54.92107703 68.49592569 60.83659716 68.19256536 67 67 C67.33 67.66 67.66 68.32 68 69 C59.98453072 71.0235843 51.85107268 72.10714254 44 69 C36.89011607 62.79841042 32.47475474 53.95007131 27.91194153 45.81033325 C24.7356777 40.15805373 21.28960775 34.74002461 17.6796875 29.35546875 C17.14825638 28.5621666 16.61682526 27.76886444 16.06929016 26.95152283 C15.00772082 25.37014617 13.94517434 23.78942499 12.88162231 22.2093811 C10.37684081 18.48302112 7.89320809 14.74336866 5.42578125 10.9921875 C4.9913974 10.34239426 4.55701355 9.69260101 4.10946655 9.02311707 C2.1452813 6.02911467 0.73940463 3.49634244 0 0 Z " fill="#090101" transform="translate(955,673)"/>
<path d="M0 0 C0.99 0.495 0.99 0.495 2 1 C2 34.99 2 68.98 2 104 C8.27 104 14.54 104 21 104 C20.67 104.66 20.34 105.32 20 106 C17.26065717 106.91311428 15.63342444 107.13498557 12.8125 107.125 C12.09707031 107.12757813 11.38164063 107.13015625 10.64453125 107.1328125 C7.08080943 106.95383681 3.54065903 106.44258238 0 106 C0 71.02 0 36.04 0 0 Z " fill="#2E0709" transform="translate(933,636)"/>
<path d="M0 0 C0.66 0 1.32 0 2 0 C2.33 0.66 2.66 1.32 3 2 C5.69801151 2.3488037 8.35358622 2.60264061 11.0625 2.8125 C20.12261017 3.71072081 25.30996268 5.81549553 31.4375 12.6875 C34.38429993 16.30877185 35.12541299 18.3980999 35.12939453 23.09790039 C35.13254669 24.16404068 35.13569885 25.23018097 35.13894653 26.32862854 C35.1369223 27.48990768 35.13489807 28.65118683 35.1328125 29.84765625 C35.13376923 31.04748642 35.13472595 32.24731659 35.13571167 33.48350525 C35.13639396 36.03661145 35.13453629 38.58971937 35.13037109 41.14282227 C35.12509339 44.99434485 35.13027767 48.84574703 35.13671875 52.69726562 C35.13983856 65.50129645 35.01318585 78.23131951 34 91 C33.34 91 32.68 91 32 91 C32.00666183 89.74212173 32.00666183 89.74212173 32.01345825 88.45883179 C32.05358628 80.54342787 32.08401048 72.62805829 32.10362434 64.71257591 C32.11404711 60.64346338 32.12817869 56.57443513 32.15087891 52.50537109 C32.17266116 48.57611898 32.18457996 44.64694777 32.18975449 40.71763992 C32.19344059 39.22098136 32.20063863 37.72432707 32.21146011 36.22770309 C32.22604678 34.12615246 32.22797498 32.02493322 32.22705078 29.92333984 C32.23371262 28.1313063 32.23371262 28.1313063 32.24050903 26.30307007 C31.80368047 20.30381368 29.89225319 15.98053841 25.87890625 11.609375 C19.45910839 6.11050448 11.8369263 5.54563138 3.6875 5.46875 C2.3571875 5.23671875 2.3571875 5.23671875 1 5 C-0.375 2.96875 -0.375 2.96875 -1 1 C-0.67 0.67 -0.34 0.34 0 0 Z " fill="#0A0102" transform="translate(407,394)"/>
<path d="M0 0 C2.77117304 0.14080555 5.54182641 0.28743118 8.3125 0.4375 C9.49102539 0.49647461 9.49102539 0.49647461 10.69335938 0.55664062 C11.8293457 0.61948242 11.8293457 0.61948242 12.98828125 0.68359375 C14.03302612 0.73858032 14.03302612 0.73858032 15.09887695 0.79467773 C17 1 17 1 20 2 C20.0232665 11.58880364 20.04098757 21.17759742 20.05181217 30.76642323 C20.05700988 35.21986202 20.0640504 39.67328137 20.07543945 44.12670898 C20.08637969 48.43204118 20.09230022 52.73735478 20.09487724 57.04269981 C20.09671156 58.67756124 20.10029312 60.31242175 20.10573006 61.94727516 C20.18716214 87.47024851 20.18716214 87.47024851 15 95 C14 93 14 93 14.89967346 90.23991394 C15.26278122 89.17074234 15.62588898 88.10157074 16 87 C17.38073825 77.24521263 17.20468217 67.25653723 17.31640625 57.41796875 C17.33703803 55.86712673 17.35803581 54.31628954 17.37937927 52.76545715 C17.43395872 48.72968518 17.48364422 44.69386804 17.53222656 40.65802002 C17.58291713 36.52132256 17.63835213 32.38468879 17.69335938 28.24804688 C17.80015361 20.1654188 17.90176538 12.08273662 18 4 C16.57107422 3.90912109 16.57107422 3.90912109 15.11328125 3.81640625 C13.85902344 3.73261719 12.60476563 3.64882813 11.3125 3.5625 C10.07113281 3.48128906 8.82976562 3.40007812 7.55078125 3.31640625 C4.61819663 3.05508683 1.86558383 2.65201621 -1 2 C-0.67 1.34 -0.34 0.68 0 0 Z " fill="#000000" transform="translate(421,495)"/>
<path d="M0 0 C1.81883009 2.3832946 3 3.95818337 3 7 C2.01 7 1.02 7 0 7 C-0.99 5.02 -0.99 5.02 -2 3 C-8.19456957 4.08327146 -14.17768433 5.56054538 -20.20703125 7.3203125 C-20.96318726 7.54100403 -21.71934326 7.76169556 -22.49841309 7.98907471 C-24.10172928 8.45774462 -25.70497855 8.92664356 -27.3081665 9.39575195 C-51.37249879 16.40315226 -75.76452401 22.34744314 -100.5625 26.125 C-101.80217529 26.31932617 -101.80217529 26.31932617 -103.06689453 26.51757812 C-107.13515648 27.06507593 -109.45393242 27.02618457 -113 25 C-112.21689453 24.87471924 -111.43378906 24.74943848 -110.62695312 24.62036133 C-77.0597321 19.2193308 -44.45182723 11.60275847 -11.71484375 2.3828125 C-10.84980225 2.13934082 -9.98476074 1.89586914 -9.09350586 1.64501953 C-2.5453709 -0.3724933 -2.5453709 -0.3724933 0 0 Z " fill="#170304" transform="translate(353,443)"/>
<path d="M0 0 C4.12582397 -0.09969463 8.25117097 -0.17185233 12.37792969 -0.21972656 C13.77844473 -0.2397063 15.17887782 -0.2669002 16.57910156 -0.30175781 C26.12059857 -0.53314932 32.81401773 -0.29242332 40.42578125 6.0078125 C41.04839844 6.70648437 41.67101562 7.40515625 42.3125 8.125 C42.94800781 8.80820312 43.58351562 9.49140625 44.23828125 10.1953125 C49.16551983 18.03956372 49.47357811 26.46367329 49.375 35.5 C49.38660156 36.56347656 49.39820313 37.62695312 49.41015625 38.72265625 C49.37788809 47.48883869 48.1296287 55.671959 43 63 C42.67 62.34 42.34 61.68 42 61 C42.60537333 59.23559533 43.2616237 57.48861782 43.9375 55.75 C45.98440017 49.37475885 46.42004827 43.49369817 46.4375 36.8125 C46.4470874 35.89887695 46.4566748 34.98525391 46.46655273 34.04394531 C46.36093804 25.35381212 44.71576777 16.79712923 39 10 C32.91576603 4.66845477 28.79648793 2.95082743 20.703125 2.68359375 C19.49785156 2.64169922 18.29257813 2.59980469 17.05078125 2.55664062 C15.79652344 2.51732422 14.54226562 2.47800781 13.25 2.4375 C11.34541016 2.37272461 11.34541016 2.37272461 9.40234375 2.30664062 C6.26833635 2.20060278 3.13425067 2.09853942 0 2 C0 1.34 0 0.68 0 0 Z " fill="#160304" transform="translate(77,652)"/>
<path d="M0 0 C14.85 0 29.7 0 45 0 C55 20 55 20 55 24 C62.26 24 69.52 24 77 24 C77.495 24.99 77.495 24.99 78 26 C69.75 26 61.5 26 53 26 C49.7 18.41 46.4 10.82 43 3 C28.81 2.67 14.62 2.34 0 2 C0 1.34 0 0.68 0 0 Z " fill="#100203" transform="translate(411,716)"/>
<path d="M0 0 C14.85 0 29.7 0 45 0 C48.63 7.59 52.26 15.18 56 23 C62.93 23.33 69.86 23.66 77 24 C77.495 24.99 77.495 24.99 78 26 C70.08 26 62.16 26 54 26 C48.04296875 14.0859375 48.04296875 14.0859375 46.99755859 11.98730469 C46.09263065 10.18453586 45.16662702 8.39238471 44.23828125 6.6015625 C43 4 43 4 43 2 C28.81 2 14.62 2 0 2 C0 1.34 0 0.68 0 0 Z " fill="#0D0202" transform="translate(842,716)"/>
<path d="M0 0 C-28.50570834 14.40532208 -58.43982078 26.90533265 -89.8125 33.4375 C-90.59455811 33.60185547 -91.37661621 33.76621094 -92.18237305 33.93554688 C-98.7297039 35.18921632 -105.97379569 36.45257807 -112.125 33.5 C-112.74375 33.005 -113.3625 32.51 -114 32 C-113.43628586 28.73045798 -112.50037734 27.17424117 -110 25 C-110 26.98 -110 28.96 -110 31 C-96.6874903 37.65625485 -72.79219928 26.9152532 -59.625 22.5625 C-41.45202157 16.50476119 -23.30613188 9.55151545 -6.359375 0.5625 C-3 -1 -3 -1 0 0 Z " fill="#120203" transform="translate(353,508)"/>
<path d="M0 0 C0 3 0 3 -0.97265625 4.7421875 C-3.61010398 10.53855552 -2.84827389 18.9738322 -1.16015625 24.99609375 C1.94813096 31.87200182 6.43484029 35.87873321 13.2109375 39.02734375 C21.93094751 42.17060317 32.44277403 42.50950803 41 39 C41.99 39.33 42.98 39.66 44 40 C34.99385153 44.8172422 24.82939803 45.40829823 14.85546875 43.3515625 C7.03634591 40.79257684 0.66592014 36.44176061 -3.4375 29.1875 C-6.6832803 21.71499246 -6.77578562 13.62977723 -4 6 C-2.81101819 3.80739095 -1.52797266 1.98636446 0 0 Z " fill="#180304" transform="translate(985,350)"/>
<path d="M0 0 C6.01962434 2.74288693 9.48939711 6.60845842 12.9296875 12.1640625 C13.5896875 13.1540625 14.2496875 14.1440625 14.9296875 15.1640625 C15.95449219 14.9475 16.97929688 14.7309375 18.03515625 14.5078125 C19.39577991 14.22630416 20.75646001 13.94506855 22.1171875 13.6640625 C22.79072266 13.52097656 23.46425781 13.37789062 24.15820312 13.23046875 C27.80478543 12.48336408 31.20617707 11.99053968 34.9296875 12.1640625 C34.9296875 12.8240625 34.9296875 13.4840625 34.9296875 14.1640625 C31.68259556 14.86581006 28.43168498 15.54794319 25.1796875 16.2265625 C24.25929688 16.42572266 23.33890625 16.62488281 22.390625 16.83007812 C21.50117187 17.01376953 20.61171875 17.19746094 19.6953125 17.38671875 C18.87836914 17.55953369 18.06142578 17.73234863 17.21972656 17.91040039 C14.79472456 18.17901202 13.21045881 18.00830332 10.9296875 17.1640625 C9.83984375 15.45703125 9.83984375 15.45703125 8.9921875 13.3515625 C6.6055674 8.17130182 3.6869003 6.05924638 -1.3828125 3.4765625 C-9.8339577 0.46852777 -16.42019692 1.41962252 -25.0703125 3.1640625 C-17.94847035 -2.29601648 -8.58409897 -2.33714654 0 0 Z " fill="#0D0202" transform="translate(561.0703125,651.8359375)"/>
<path d="M0 0 C6.01529121 3.39994721 11.05837533 8.537759 13.6875 15 C14.67124207 21.82900019 13.59291325 26.38596846 9.6875 32 C9.3575 31.34 9.0275 30.68 8.6875 30 C8.996875 29.278125 9.30625 28.55625 9.625 27.8125 C11.49371152 22.86591068 11.25305571 18.72334203 9.125 13.9375 C5.51132873 7.37181557 -0.1774745 3.17678744 -7.3125 1 C-12.73617038 0.53363344 -17.98139367 0.87766182 -23.3125 2 C-22.3125 0 -22.3125 0 -20.10546875 -1.09765625 C-13.40528819 -3.26232997 -6.40517322 -2.90877132 0 0 Z " fill="#0E0202" transform="translate(1023.3125,345)"/>
<path d="M0 0 C0.33 0 0.66 0 1 0 C1.52551306 27.07065982 0.22478915 52.20726972 -12 77 C-12.99 77.99 -12.99 77.99 -14 79 C-13.36008838 75.14646628 -12.19288923 71.84802008 -10.6875 68.25 C-6.2405337 56.84982918 -3.86134117 45.0634603 -2.5949707 32.9128418 C-2.08955694 28.08955694 -2.08955694 28.08955694 -1 27 C-0.84174742 25.00217874 -0.74880829 22.99911166 -0.68359375 20.99609375 C-0.62075195 19.17368164 -0.62075195 19.17368164 -0.55664062 17.31445312 C-0.51732422 16.03505859 -0.47800781 14.75566406 -0.4375 13.4375 C-0.39431641 12.15423828 -0.35113281 10.87097656 -0.30664062 9.54882812 C-0.200152 6.36600147 -0.09814038 3.18309326 0 0 Z " fill="#1F0406" transform="translate(576,481)"/>
<path d="M0 0 C3.1595747 2.62947217 4.32902385 5.67257168 5.8828125 9.42578125 C6.14254852 10.05099167 6.40228455 10.67620209 6.66989136 11.32035828 C7.21636066 12.64102156 7.75910035 13.96323349 8.29833984 15.28686523 C9.11956816 17.2991899 9.95530064 19.30501874 10.79296875 21.31054688 C11.32379934 22.59859492 11.85377525 23.88699559 12.3828125 25.17578125 C13.10041748 26.92242065 13.10041748 26.92242065 13.83251953 28.7043457 C14.93864424 31.82680022 15.57155785 34.72263516 16 38 C14.515 38.495 14.515 38.495 13 39 C12.74347656 38.16082031 12.48695313 37.32164062 12.22265625 36.45703125 C9.3246739 27.35326853 5.8210575 18.66905042 1.85961914 9.97192383 C1.47539795 9.10978271 1.09117676 8.2476416 0.6953125 7.359375 C0.34484863 6.59077148 -0.00561523 5.82216797 -0.36669922 5.03027344 C-1 3 -1 3 0 0 Z " fill="#0B0102" transform="translate(864,660)"/>
<path d="M0 0 C3.35421557 2.68051357 4.48343348 6.24991533 5.91796875 10.15234375 C6.18007645 10.84888565 6.44218414 11.54542755 6.7122345 12.26307678 C7.2632337 13.73338553 7.81015987 15.20522625 8.35327148 16.6784668 C9.18470671 18.92993596 10.03175349 21.17506591 10.88085938 23.41992188 C11.4150058 24.85121082 11.94823985 26.28284066 12.48046875 27.71484375 C12.73354294 28.38474838 12.98661713 29.05465302 13.24736023 29.74485779 C14.46874442 33.08577261 15 35.38385376 15 39 C14.34 39 13.68 39 13 39 C11.30676564 34.82463799 9.63166524 30.64246923 7.97216797 26.45361328 C7.28816435 24.72728573 6.60210493 23.00177201 5.91455078 21.27685547 C4.7870816 18.43844083 3.67347347 15.59490666 2.5625 12.75 C2.19640625 11.83323486 1.8303125 10.91646973 1.453125 9.97192383 C1.11925781 9.10978271 0.78539062 8.2476416 0.44140625 7.359375 C0.13920166 6.59077148 -0.16300293 5.82216797 -0.47436523 5.03027344 C-1 3 -1 3 0 0 Z " fill="#0B0102" transform="translate(433,660)"/>
<path d="M0 0 C0.66 0.33 1.32 0.66 2 1 C-11.72557842 8.4792074 -31.01691068 18.38983385 -47 17 C-48 16 -48 16 -48.09765625 14.15234375 C-48.06510417 12.1015625 -48.03255208 10.05078125 -48 8 C-47.34 7.67 -46.68 7.34 -46 7 C-45.67 9.31 -45.34 11.62 -45 14 C-37.75449418 14.7097206 -31.52779592 12.14954329 -24.75 9.8125 C-23.58597656 9.42513672 -22.42195313 9.03777344 -21.22265625 8.63867188 C-14.63831922 6.40825536 -8.35129641 3.91070686 -2.11816406 0.8269043 C-1.41916992 0.55402588 -0.72017578 0.28114746 0 0 Z " fill="#120203" transform="translate(359,544)"/>
<path d="M0 0 C1 2 1 2 0 9 C20.295 9.495 20.295 9.495 41 10 C41 10.33 41 10.66 41 11 C36.81595222 11.79116254 32.86139038 12.12838551 28.60546875 12.1328125 C26.80045898 12.13474609 26.80045898 12.13474609 24.95898438 12.13671875 C23.71439453 12.13285156 22.46980469 12.12898437 21.1875 12.125 C19.95451172 12.12886719 18.72152344 12.13273438 17.45117188 12.13671875 C10.88181459 12.12970395 4.51050088 11.8868358 -2 11 C-2.25 3.375 -2.25 3.375 0 0 Z " fill="#000000" transform="translate(162,506)"/>
<path d="M0 0 C1 3 1 3 -3 13 C4.59 13 12.18 13 20 13 C19 15 19 15 17.3671875 15.6171875 C14.2632571 16.11914324 11.26889625 16.13176107 8.125 16.125 C6.93132813 16.12757813 5.73765625 16.13015625 4.5078125 16.1328125 C1.24652649 16.00933396 -1.79938334 15.61663257 -5 15 C-4.43174347 9.45949887 -2.37113483 4.96284034 0 0 Z " fill="#1A0405" transform="translate(812,727)"/>
<path d="M0 0 C0.33 0 0.66 0 1 0 C1.59601165 13.95217425 1.29612932 25.96773892 -4 39 C-5.25273101 35.24180696 -4.5351304 33.50453395 -3.5625 29.6875 C-2.10898133 23.35618217 -1.85980633 17.62465117 -2.02734375 11.15625 C-1.99234261 7.11611784 -1.2261719 3.83178717 0 0 Z " fill="#190304" transform="translate(715,397)"/>
<path d="M0 0 C0.33 0 0.66 0 1 0 C1.33 9.9 1.66 19.8 2 30 C3.65 30.33 5.3 30.66 7 31 C6.67 31.66 6.34 32.32 6 33 C4.00045254 33.04254356 1.99958364 33.04080783 0 33 C-1.90849948 31.09150052 -1.13059633 27.68521226 -1.1328125 25.15625 C-1.13376923 24.47195923 -1.13472595 23.78766846 -1.13571167 23.0826416 C-1.1363933 21.63338123 -1.13454023 20.18411782 -1.13037109 18.73486328 C-1.12502252 16.50937072 -1.1303166 14.28407999 -1.13671875 12.05859375 C-1.13605797 10.65364539 -1.1347768 9.24869715 -1.1328125 7.84375 C-1.13168457 6.55662109 -1.13055664 5.26949219 -1.12939453 3.94335938 C-1 1 -1 1 0 0 Z " fill="#000000" transform="translate(1000,349)"/>
<path d="M0 0 C0.33 0 0.66 0 1 0 C1.26756301 30.35353756 1.26756301 30.35353756 -4 38 C-4.33 37.34 -4.66 36.68 -5 36 C-4.71125 35.21625 -4.4225 34.4325 -4.125 33.625 C-2.7624186 29.23445994 -2.5216486 25.08367978 -2.24609375 20.51171875 C-2 18 -2 18 -1 17 C-0.76298761 14.14122091 -0.57780818 11.30116703 -0.4375 8.4375 C-0.37272461 7.22803711 -0.37272461 7.22803711 -0.30664062 5.99414062 C-0.20024738 3.99631195 -0.09959112 1.9981793 0 0 Z " fill="#220506" transform="translate(440,552)"/>
<path d="M0 0 C2.1875 0 2.1875 0 5 1 C6.97281715 3.499649 8.45894168 6.22068781 10 9 C11.66954819 12.22404978 11.66954819 12.22404978 14.625 12.6875 C15.800625 12.8421875 15.800625 12.8421875 17 13 C15 15 15 15 12.6875 15.625 C10 15 10 15 8.73828125 13.38671875 C7.89386313 11.97225181 7.07171596 10.54430799 6.26953125 9.10546875 C5.06619644 7.10978425 3.87762495 5.71038481 2.1875 4.125 C1.465625 3.42375 0.74375 2.7225 0 2 C0 1.34 0 0.68 0 0 Z " fill="#070101" transform="translate(1009,367)"/>
<path d="M0 0 C0.33 0 0.66 0 1 0 C1.12330415 11.71389465 0.8283506 23.31433979 0 35 C-0.66 35 -1.32 35 -2 35 C-2.02888514 31.85418577 -2.04675923 28.70840531 -2.0625 25.5625 C-2.07087891 24.66466797 -2.07925781 23.76683594 -2.08789062 22.84179688 C-2.09111328 21.98779297 -2.09433594 21.13378906 -2.09765625 20.25390625 C-2.10551147 19.06776733 -2.10551147 19.06776733 -2.11352539 17.85766602 C-2 16 -2 16 -1 15 C-0.76346477 12.47403741 -0.57826308 9.96892793 -0.4375 7.4375 C-0.39431641 6.72658203 -0.35113281 6.01566406 -0.30664062 5.28320312 C-0.20028223 3.52238088 -0.09961154 1.7612168 0 0 Z " fill="#1F0406" transform="translate(441,450)"/>
<path d="M0 0 C0.33 0.99 0.66 1.98 1 3 C7.93 3 14.86 3 22 3 C22 3.66 22 4.32 22 5 C14.41 5 6.82 5 -1 5 C-0.67 3.35 -0.34 1.7 0 0 Z " fill="#160304" transform="translate(378,737)"/>
<path d="M0 0 C0.33 3.96 0.66 7.92 1 12 C0.01 11.67 -0.98 11.34 -2 11 C-2.33 8.36 -2.66 5.72 -3 3 C-4.65 2.67 -6.3 2.34 -8 2 C-8 1.34 -8 0.68 -8 0 C-4.71303767 -0.79953138 -3.28976808 -1.09658936 0 0 Z " fill="#180304" transform="translate(345,414)"/>
<path d="M0 0 C5.61 0.33 11.22 0.66 17 1 C11.13075775 3.93462112 5.335953 3.63508464 -1 2 C-0.67 1.34 -0.34 0.68 0 0 Z " fill="#160304" transform="translate(421,495)"/>
<path d="M0 0 C2.4808995 0.94274181 4.79283825 1.9317206 7.125 3.1875 C7.125 3.8475 7.125 4.5075 7.125 5.1875 C4.03895578 4.75688918 1.37408704 4.29425159 -1.5 3.0625 C-4.14875481 2.08664296 -5.27267153 2.22367464 -7.875 3.1875 C-3.79910714 -1.07366071 -3.79910714 -1.07366071 0 0 Z " fill="#0D0202" transform="translate(394.875,484.8125)"/>
<path d="M0 0 C-0.33 0.66 -0.66 1.32 -1 2 C-5.69171009 3.42173033 -11.73235915 4.02142431 -16.24609375 1.98828125 C-16.82488281 1.66214844 -17.40367187 1.33601563 -18 1 C-11.97968656 0.39034801 -6.05329744 -0.13451772 0 0 Z " fill="#1C0405" transform="translate(284,422)"/>
<path d="M0 0 C1.81883009 2.3832946 3 3.95818337 3 7 C2.01 7 1.02 7 0 7 C-0.66 5.68 -1.32 4.36 -2 3 C-3.65 3 -5.3 3 -7 3 C-7 2.34 -7 1.68 -7 1 C-4.39722303 -0.30138849 -2.88185107 -0.4217343 0 0 Z " fill="#0D0202" transform="translate(353,443)"/>
<path d="M0 0 C5.75 0.75 5.75 0.75 8 3 C8.125 5.625 8.125 5.625 8 8 C7.01 8.495 7.01 8.495 6 9 C5.6596875 7.824375 5.6596875 7.824375 5.3125 6.625 C4.21875 3.78125 4.21875 3.78125 1.375 2.6875 C0.59125 2.460625 -0.1925 2.23375 -1 2 C-0.67 1.34 -0.34 0.68 0 0 Z " fill="#110203" transform="translate(1010,352)"/>
<path d="M0 0 C3.3 0.33 6.6 0.66 10 1 C6.3558226 3.4294516 4.28758728 3.16179575 0 3 C0 2.01 0 1.02 0 0 Z " fill="#1E0405" transform="translate(839,469)"/>
<path d="M0 0 C0.83583327 2.37607949 1.1842383 3.54449627 0.22265625 5.921875 C-0.8515625 7.61458333 -1.92578125 9.30729167 -3 11 C-3.33 10.34 -3.66 9.68 -4 9 C-3.22265625 6.8359375 -3.22265625 6.8359375 -2.0625 4.375 C-1.68222656 3.55773437 -1.30195313 2.74046875 -0.91015625 1.8984375 C-0.60980469 1.27195312 -0.30945313 0.64546875 0 0 Z " fill="#240506" transform="translate(439,579)"/>
</svg>
