<?xml version="1.0" encoding="UTF-8"?>
<svg id="Layer_1" xmlns="http://www.w3.org/2000/svg" version="1.1" xmlns:xlink="http://www.w3.org/1999/xlink" viewBox="0 0 600 200">
  <!-- Generator: Adobe Illustrator 29.5.1, SVG Export Plug-In . SVG Version: 2.1.0 Build 141)  -->
  <defs>
    <style>
      .st0 {
        fill: #fff;
      }

      .st1 {
        font-family: Poppins-SemiBold, Poppins;
        font-size: 76.55px;
        font-weight: 600;
      }

      .st1, .st2 {
        fill: #6b6b6b;
      }

      .st3 {
        fill: url(#linear-gradient);
      }
    </style>
    <linearGradient id="linear-gradient" x1="222.52" y1="100.17" x2="23.74" y2="100.17" gradientUnits="userSpaceOnUse">
      <stop offset="0" stop-color="#fff"/>
      <stop offset="1" stop-color="#000"/>
    </linearGradient>
  </defs>
  <g>
    <path class="st3" d="M191.44,57.5c14.99,3.97,44.75,16.46,50.97,46.99,2.28,10.4,2.41,20.93-.17,31.22-8.31,30.14-30.82,42.04-38.76,43.95-22.72,5.95-52.12,4.26-76.06,4.53-9.96-.02-26.93-.08-33.36.04-8.68.33-11.59-.55-18.52-3.21-10.36-4.13-20.26-11.03-26.39-21.04-10.85-15.82-7.91-51.51,11.35-59.39.16-.06.27-.11.3-.14-.08-.67-.7-4.74-.78-10.7-.48-23.07,6.48-47.57,31.03-62.29,35.94-22.81,76.56-10.76,100.32,29.92l.08.12Z"/>
    <path class="st0" d="M124.27,123.99c.49-10.25,0-35.91.17-41.39-.15-1.24.77-2.39,1.63-3.26,1.97-2.07,4.51-3.95,7.63-3.9,3.27.08,7.36,2.5,8.08,5.55.27,6.35,0,31.23.09,41.88.01.4-.15,1.44.57.93,4.63-4.19,10.55-11.17,14.55-14.17,3.1-.89,8.79-.38,11.25,3.11,1.87,2.76,2.23,6.9.52,9.77-1.46,1.63-3.16,3.32-4.87,5.07-6.05,6.14-15.06,15.01-20.36,20.44-2.67,2.99-7.07,2.81-10.78,2.67-2.64-.19-5.32-.79-7.14-2.57-1.55-1.56-4.65-4.66-8.26-8.29s-7.39-7.42-10.9-10.95c-2.95-2.97-5.08-5.1-7.5-7.54-.67-.68-1.14-1.04-1.51-1.79-1.6-5.91,5.56-12.21,11.08-10.09,5.03,3.56,11.74,11.6,15.71,14.54l.06-.02Z"/>
  </g>
  <path class="st2" d="M147.43,306.85c1.93,0,1.93-3,0-3s-1.93,3,0,3h0Z"/>
  <path class="st2" d="M114.57,290.15c1.93,0,1.93-3,0-3s-1.93,3,0,3h0Z"/>
  <text class="st1" transform="translate(176.4 139.7)"><tspan x="0" y="0">Catalogue</tspan></text>
</svg>