<svg xmlns="http://www.w3.org/2000/svg" width="1080" height="1080"><path fill="#C81E26" d="M1032.324 342.578c4.4 3.61 7.293 7.26 9.676 12.422v3h2c.868 11.155-.54 17.55-7.746 26.063-3.379 3.611-6.63 6.02-11.254 7.937l2.266.078c8.046.464 8.046.464 11.359 2.672 1.587 2.596 2.3 4.195 2.375 7.25-2.231 5.04-5.767 7.24-10.312 10l-2.165 1.323c-18.02 10.686-38.326 12.123-58.77 13.434q-3.807.247-7.612.52C885.646 432.77 808.527 429.158 733 416l-1 10 4.238.36c8.035.73 16.047 1.66 24.063 2.564 19.075 2.153 19.075 2.153 38.168 4.13 53.831 5.347 107.585 11.996 161.156 19.509l3.558.496q4.866.683 9.731 1.382l2.787.394c13.626 1.994 13.626 1.994 17.799 4.915 1.93 2.896 1.81 4.84 1.5 8.25h-2v2c-7.58 3.375-15.01 5.634-23.125 7.25l-2.454.493c-11.408 2.16-22.777 2.462-34.359 2.445l-2.253-.002c-67.55-.148-137.109-13.002-201.365-33.478-2.34-.8-2.34-.8-4.444-.708l-2 4 2.045.472c8.173 1.957 16.132 4.434 24.12 7.024 34.728 11.22 69.897 21.009 105.148 30.442l3.586.96c11.108 2.967 22.22 5.909 33.378 8.68l2.272.568c3.306.826 6.613 1.639 9.929 2.422l3.319.819 2.792.663c2.94 1.158 4.433 2.5 6.411 4.95.75 3.75.75 3.75 1 7-11.106 9.123-37.978 4.7-51.777 3.352-52.057-6.197-105.965-24.282-153.38-46.663-2.602-.973-4.31-.764-6.843.311l-2 2c13.186 6.135 26.434 12.102 39.789 17.86 17.567 7.576 35.08 15.273 52.587 22.985q3.967 1.745 7.935 3.488 6.367 2.798 12.729 5.609 2.383 1.051 4.769 2.099 3.284 1.442 6.562 2.896l1.96.857c2.655 1.182 4.594 2.13 6.669 4.206.566 6.222.566 6.222-1.238 8.703-3.95 2.908-9.793 1.559-14.407.945A202 202 0 0 1 812 541l-3.129-.669c-41.762-9.285-86.41-26.44-120.969-52.015-2.968-1.68-2.968-1.68-6.71-.601-3.005.968-3.005.968-4.192 2.285l3.156 2.203c7.242 5.074 14.43 10.193 21.469 15.547 14.71 11.14 29.917 21.614 45.676 31.212a644 644 0 0 1 7.886 4.913l2.481 1.555c6.941 4.674 6.941 4.674 8.394 8.008C766 556 766 556 764.688 558.875c-2.941 2.326-3.389 2.465-6.937 2.25C718.113 554.897 682.382 528.993 656 500l-1-2c-6.076-.113-11.964.307-18 1l.25 3.875c-.07 24.882-12.91 48.24-29.25 66.125l-1.988 2.238c-12.415 13.265-29.795 22.865-47.012 28.2l-2.258.711c-16.305 4.665-33.632 4.263-50.43 4.476l-3.664.053q-10.722.153-21.446.259-6.32.063-12.643.14-11.802.142-23.605.208-4.128.025-8.256.074c-3.851.046-7.702.058-11.553.067l-3.468.053c-6.2-.017-9.95-.317-14.677-4.479 4.3-4.444 6.544-5.114 12.688-5.812 7.801-1.11 7.801-1.11 14.312-5.188 5.933-10.877 4.179-25.463 4.316-37.582l.063-4.653q.082-6.053.153-12.107.077-6.205.161-12.41.16-12.124.307-24.248c-11.037-1.741-11.037-1.741-21.72.179-1.938 1.772-3.363 3.528-4.842 5.696a1238 1238 0 0 1-3.387 4.2l-1.58 2.063C388.238 535.478 349.056 555.292 319 561c-2.444.232-4.541.214-7 0-1-1-1-1-1.687-4.625.079-2.801.313-3.977 2.25-6.04a97 97 0 0 1 6.608-4.244c2.944-1.757 5.825-3.612 8.718-5.451 2.499-1.586 5.003-3.16 7.51-4.734 5.606-3.53 11.122-7.182 16.601-10.906l2.06-1.393C377.073 508.041 377.073 508.041 399 491c-2.565-1.76-5-3.137-8-4-3.038.634-5.317 2.163-7.875 3.875l-1.95 1.203q-2.025 1.256-4.03 2.545C342.64 516.773 286.02 547.259 244 543c-3.125-1.5-3.125-1.5-5-3 .594-4.008 2.166-6.129 5-9 3.664-2.118 7.505-3.796 11.375-5.5l3.506-1.58c9.54-4.278 19.135-8.435 28.739-12.568 11.386-4.902 22.73-9.9 34.067-14.914l5.56-2.457c8.143-3.6 16.28-7.21 24.398-10.864l3.823-1.716a1692 1692 0 0 0 6.855-3.1l2.99-1.344 2.55-1.157C370 475 370 475 373 475l-4-5c-5.35.622-9.826 2.388-14.75 4.438q-2.707 1.101-5.418 2.199l-2.888 1.173C288.432 501.057 222.994 525.257 160 517c-.492-7.261-.492-7.261 1.675-10.514 2.644-2.827 4.22-3.497 7.919-4.506l3.52-.979q1.942-.504 3.886-1.001l2.019-.526c4.607-1.197 9.225-2.352 13.844-3.502 45.459-11.363 90.438-24.425 135.203-38.242l3.136-.967c6.965-2.16 13.888-4.433 20.798-6.763l-1-4c-8.634 1.51-16.905 3.937-25.303 6.395C261.189 471.165 143.982 503.173 81 470c.37-7.415.37-7.415 3.19-10.035 8.9-6.224 23.412-6.223 34.06-7.652.913-.125 1.826-.25 2.766-.377 20.944-2.837 41.955-5.063 62.967-7.32a3758 3758 0 0 0 73.614-8.67c13.545-1.724 27.093-3.4 40.657-4.97l2.137-.247q9.24-1.071 18.483-2.12 5.528-.628 11.056-1.261l3.329-.372 3.022-.347 2.631-.297c2.14-.233 2.14-.233 4.088-1.332l-1-8c-10.12.554-20.029 1.956-30.04 3.469-18.588 2.788-37.136 5.06-55.887 6.384q-3.132.224-6.264.459C80.917 439.634 80.917 439.634 39.117 408.879c-2.62-2.325-3.043-3.213-3.43-6.692.385-3.918 1.606-5.4 4.313-8.187 2.537-1.269 4.295-1.128 7.136-1.131l3.317-.012 3.675.003 3.88-.01q5.348-.011 10.697-.01c3.842-.002 7.683-.01 11.524-.016q12.608-.02 25.215-.024l15.736-.012q21.774-.019 43.547-.026h5.64l5.664-.002h2.839q22.77-.009 45.54-.046 23.362-.035 46.725-.037 13.122.001 26.246-.025 11.175-.023 22.348-.012 5.703.008 11.406-.011c4.119-.015 8.238-.007 12.357.004l3.654-.025 3.34.02 2.882-.002c3.17.45 5.05 1.51 7.632 3.374 2.395 4.054 2.09 7.638 1.875 12.25-.363 18.69 6.529 35.211 18.727 49.262 13.955 14.478 30.896 22.796 50.671 25.551l3.818.535L439 484q.07-12.948.104-25.896.014-6.013.047-12.026.032-5.806.039-11.613.005-2.211.021-4.422c.015-2.07.017-4.141.016-6.211l.014-3.567c-.441-5.98-2.362-10.298-6.362-14.656-6.42-5.498-14.042-6.063-22.192-6.14L408 399c-1.375-2.031-1.375-2.031-2-4 3.936-3.122 6.788-4.123 11.789-4.14l2.989-.018 3.277-.003 3.455-.015q5.683-.021 11.365-.027l7.922-.017q7.262-.015 14.525-.019 10.62-.007 21.24-.05a4423 4423 0 0 1 16.488-.034q4.905 0 9.81-.025c18.381-.086 36.372.322 53.89 6.536l2.638.912c27.456 9.833 49.682 29.48 62.632 55.548 4.498 9.555 7.7 19.731 7.98 30.352 5.322.188 9.962-.424 15.125-1.687l2.249-.546c20.972-5.279 37.814-15.38 49.626-33.767 7.277-12.632 10.351-25.22 9.973-39.844.035-4.04.8-7.324 2.027-11.156h2v-2c7.031-3.516 17.794-2.15 25.541-2.158l3.323-.015q5.459-.021 10.916-.032l7.868-.03q8.44-.033 16.883-.056 12.205-.035 24.41-.08 19.806-.071 39.612-.132 19.23-.059 38.459-.125l2.398-.008 11.911-.041q49.34-.17 98.679-.323l-2.876-1.417c-6.113-3.098-10.606-7.05-13.405-13.384-2.604-7.968-2.327-16.052 1.472-23.55 4.803-7.827 11.236-12.576 19.809-15.649 10.6-2.496 21.177-1.632 30.324 4.578m-40.133 11.64c-3.663 5.478-4.049 10.273-3.191 16.782 2.308 6.28 7.136 10.938 13 14 7.539 2.652 13.74 2.215 21-1 5.173-2.874 8.492-6.135 11.25-11.375 1.669-5.84 1.02-10.406-1.855-15.637-4.037-5.755-9.653-10.012-16.395-11.988-9.845-1.313-17.597 1.433-23.809 9.219M494 404v183c17.24 4.31 35.598.071 50.938-8.156 15.43-9.29 21.535-26.542 25.871-43.304 7.88-32.913 6.713-71.501-10.743-101.27-3.018-4.776-6.228-9.123-10.066-13.27l-1.941-2.105c-11.48-11.263-27.22-16.625-43.09-17.082-4.544.062-4.544.062-10.969 2.187"/><path fill="#BD1D24" d="m292.531 634.375 2.87.078c3.258.686 4.582 1.907 6.786 4.36A232 232 0 0 1 305 645c1.77 2.97 3.678 5.851 5.563 8.75q1.562 2.478 3.117 4.96 5.236 8.345 10.507 16.665l1.653 2.624c4.536 7.154 9.325 14.018 14.16 21.001l1-63c2.505-1.252 4.209-1.114 7.008-1.098l2.988.01 3.129.025 3.152.014q3.862.018 7.723.049.176 20.458.26 40.915c.025 6.333.06 12.665.117 18.998q.08 9.161.097 18.323.015 3.501.055 7.001c.036 3.262.041 6.522.039 9.784l.054 2.942c-.019 2.449-.072 4.651-.622 7.037-3.443 3.068-6.226 3.37-10.75 3.25l-2.922-.047L348 743l-2.089.201c-2.703.082-4.407-.142-6.911-1.201-3.565-3.77-6.1-8.135-8.75-12.562a931 931 0 0 0-2.422-3.871q-2.577-4.108-5.122-8.234c-4.155-6.694-8.518-13.253-12.86-19.825-2.25-3.407-4.487-6.821-6.725-10.235A1508 1508 0 0 0 297 678l-.025 2.34a7912 7912 0 0 1-.263 21.808q-.076 5.605-.134 11.212-.056 5.408-.136 10.815a818 818 0 0 0-.045 4.131c-.017 1.926-.047 3.85-.078 5.776l-.04 3.324C296 740 296 740 294 742h-21V636c5.511-2.756 13.504-1.79 19.531-1.625"/><path fill="#C51E26" d="M948.586 633.6c4.368.178 7.958.34 11.564 2.964 4.004 4.552 6.587 9.976 9.26 15.377 2.818 5.422 6.243 10.454 9.59 15.559q1.846 2.889 3.688 5.781c5.732 8.931 11.528 17.821 17.312 26.719l1-64c2.453-1.226 4.05-1.114 6.79-1.098l2.85.01 2.985.025 3.008.014q3.683.018 7.367.049.034 20.705.052 41.41.007 9.614.023 19.226.016 9.27.02 18.538.003 3.544.01 7.09.01 4.945.009 9.892l.01 2.993-.004 2.707.003 2.366C1024 741 1024 741 1023 742c-7.856 2.317-16.303 3.118-24 0-7.124-6.282-11.544-15.097-16.143-23.29-3.93-6.985-8.33-13.606-12.822-20.237-4.382-6.467-8.702-12.974-13.035-19.473l-1 61c-6.768 3.384-6.768 3.384-10.375 3.25-.688-.015-1.377-.03-2.086-.047-3.53-.282-7.026-.757-10.539-1.203q-.034-20.705-.052-41.41-.007-9.614-.023-19.226-.016-9.27-.02-18.538-.003-3.544-.01-7.09-.01-4.945-.009-9.892l-.01-2.993.004-2.707-.003-2.366c.373-5.391 11.709-4.073 15.709-4.178"/><path fill="#C81E26" d="m59.728 634.807 3.644-.049c5.536-.044 11.072-.086 16.609-.108a915 915 0 0 0 8.734-.082c3.53-.05 7.06-.074 10.59-.081 1.977-.01 3.956-.044 5.934-.08 11.727.028 22.132 3.41 30.761 11.593 11.04 11.906 14.768 28.786 14.277 44.66C149.01 705.926 145.08 721.51 133 732c-15.655 11.919-37.945 11.344-56.78 11.206-2.641-.019-5.282-.02-7.923-.02l-5.07-.018-2.377-.003c-3.208-.029-5.785-.143-8.85-1.165V636c2.668-1.334 4.74-1.157 7.728-1.193M77 654q-.034 13.274-.052 26.546-.007 6.163-.023 12.326-.016 5.942-.02 11.885-.003 2.272-.01 4.544-.01 3.172-.009 6.343l-.006 3.654c-.188 2.619-.188 2.619 1.12 3.702 3.972.284 7.957.232 11.938.25l3.345.062c8.483.04 15.77-.9 23.092-5.375 7.211-8.07 7.82-18.296 7.875-28.625l.063-2.857c.053-9.803-1.825-18.886-8.915-26.08-5.458-5.001-10.426-6.641-17.89-6.57l-3.633.02-3.75.05-3.82.027q-4.653.036-9.305.098"/><path fill="#C21D25" d="m718.519 634.876 2.397.01h2.513c2.754 0 5.508.009 8.262.016l5.713.005q7.534.006 15.067.024 7.682.014 15.363.02 15.082.016 30.166.049.08 4.188.125 8.375l.05 2.406c.018 2.074-.072 4.148-.175 6.219-2 2-2 2-4.48 2.24l-3.163-.013h-3.58l-3.879-.032-3.96-.008c-3.475-.008-6.95-.028-10.425-.05-3.546-.02-7.092-.03-10.638-.04-6.958-.02-13.917-.056-20.875-.097l1 21 56 1v18c-2.571 1.286-4.397 1.12-7.276 1.114h-3.336l-3.615-.016-3.69-.005c-3.903-.005-7.805-.018-11.708-.03q-3.96-.008-7.922-.014c-6.484-.01-12.969-.03-19.453-.049l1 27 62 1v18c-3.185 1.592-6.625 1.13-10.122 1.114h-2.542c-2.782 0-5.563-.009-8.344-.016l-5.776-.005q-7.61-.006-15.22-.024-7.761-.014-15.523-.02-15.236-.016-30.473-.049-.034-20.705-.052-41.41-.007-9.614-.023-19.226-.016-9.27-.02-18.538-.003-3.544-.01-7.09-.01-4.945-.009-9.892l-.01-2.993.004-2.707-.003-2.366c.276-3.983 3.364-2.896 6.642-2.902"/><path fill="#C41E25" d="m859.203 634.805 2.969.02 3.078.05 3.125.027q3.813.036 7.625.098c5.098 10.77 9.95 21.63 14.688 32.563l2.172 5 3.45 7.944a8572 8572 0 0 0 7.782 17.867q2.752 6.304 5.502 12.609 1.337 3.066 2.678 6.13 1.88 4.305 3.755 8.61l1.131 2.58c1.819 4.183 3.487 8.334 4.842 12.697-2.61 1.305-4.527 1.113-7.445 1.098l-3.262-.01-3.418-.025-3.441-.014A2715 2715 0 0 1 896 742c-5.957-11.914-5.957-11.914-7.002-14.013a464 464 0 0 0-2.76-5.385C885 720 885 720 885 718h-44l-3 10a172 172 0 0 1-2.562 6.5l-1.254 3.031c-1.237 2.58-2.131 4.086-4.88 5.086-3.08.512-6.056.515-9.179.508l-3.617.008c-3.261-.124-6.307-.516-9.508-1.133.61-5.443 2.47-9.944 4.621-14.918l1.127-2.65c1.224-2.875 2.457-5.747 3.69-8.62q1.935-4.54 3.868-9.082 1.331-3.13 2.666-6.257a3115 3115 0 0 0 9.118-21.625l1.229-2.944q2.35-5.63 4.694-11.263c2.03-4.875 4.07-9.746 6.13-14.608.786-1.865 1.559-3.735 2.33-5.606l1.285-3.013 1.043-2.494c2.523-4.04 5.937-4.167 10.402-4.115M863 663q-2.755 6.51-5.5 13.025-.933 2.215-1.87 4.429a3296 3296 0 0 0-2.689 6.374l-.846 1.992c-1.923 4.475-1.923 4.475-3.095 9.18 1.07 1.295 1.07 1.295 3.592 1.114l3.412-.016 3.682-.01 3.876-.025 3.89-.014q4.773-.018 9.548-.049c-.485-6.945-3.198-12.786-5.937-19.125l-2.715-6.383-1.219-2.832A334 334 0 0 1 864 663z"/><path fill="#C31E25" d="m423.29 634.757 2.831.013 3.084.005 3.233.037 3.22.002c7.92.046 7.92.046 11.342 1.186a84 84 0 0 1 3.344 7.266l.974 2.316c1.071 2.552 2.126 5.11 3.182 7.668q1.12 2.683 2.246 5.365 2.389 5.706 4.765 11.419a3272 3272 0 0 0 7.59 18.04l1.276 3.012 2.518 5.946c2.68 6.332 5.358 12.665 8.016 19.007a870 870 0 0 0 4.233 9.91l1.973 4.617.934 2.11c1.629 3.849 2.001 5.115.949 9.324h-25l-10-23h-43l-9 21h-2v2h-23c.936-4.682 2.383-8.748 4.184-13.129l.991-2.443q1.626-3.997 3.263-7.99l2.278-5.597q3.016-7.404 6.043-14.804 2.474-6.056 4.94-12.113a26371 26371 0 0 1 7.124-17.458Q409.391 659.725 413 651l.908-2.197a1195 1195 0 0 1 2.487-5.944l1.39-3.313c2.114-4.43 2.114-4.43 5.506-4.789M432 663c-3.878 7.117-7.043 14.353-9.875 21.937l-.94 2.474-.865 2.366-.773 2.102c-.755 2.563-.755 2.563-.547 7.121h27a1115 1115 0 0 0-7.562-21.938l-1.21-3.439-1.17-3.275-1.052-2.969c-.885-2.509-.885-2.509-3.006-4.379"/><path fill="#C61E26" d="M588.035 644.848c4.051 4.326 7.599 9.306 8.965 15.152-.406 3.273-.406 3.273-1 6-3.247.702-6.498 1.384-9.75 2.063l-2.79.603-2.694.557-2.476.523c-2.425.269-4.01.098-6.29-.746-1.09-1.707-1.09-1.707-1.937-3.812-2.387-5.18-5.306-7.293-10.375-9.875-8.558-3.046-15.198-2.49-23.688.687-5.772 3.139-8.078 7.493-10.273 13.535-3.763 12.764-3.649 29.41 2.273 41.465 3.739 6.3 8.283 9.24 15.23 11.379 7.097 1.591 13.31 1.093 19.77-2.379 5.675-4.189 8.103-10.757 11-17h2l1-2 20 6c-1.36 10.88-5.315 18.392-13.309 25.926C570.508 743.086 556.154 745.312 540 744c-12.848-1.798-25.078-8.666-33-19-10.375-16.722-12.142-34.559-7.91-53.59 3.462-12.974 11.222-24.275 22.535-31.597 20.246-11.526 48.654-11.086 66.41 5.035M157 635c4.52-.292 9.037-.468 13.563-.625l3.869-.254c9.248-.24 9.248-.24 12.78 2.754 1.852 2.617 3.318 5.277 4.788 8.125a396 396 0 0 0 3.605 5.578q1.794 2.834 3.583 5.672c5.32 8.431 5.32 8.431 10.812 16.75 3.416-4.083 6.273-8.394 9.125-12.875l2.906-4.523 1.485-2.308c2.34-3.617 4.72-7.209 7.109-10.794l1.29-1.94c2.96-4.435 2.96-4.435 4.085-5.56 1.927-.087 3.857-.107 5.785-.098l3.545.01 3.732.025 3.745.014q4.596.018 9.193.049c-3.514 6.61-7.44 12.823-11.656 19.004l-1.893 2.796q-2.971 4.384-5.951 8.763-2.977 4.384-5.95 8.773a3384 3384 0 0 1-3.69 5.432 594 594 0 0 0-3.324 4.95q-1.468 2.188-3.038 4.303c-3.855 5.433-4.206 9.973-4.135 16.534l-.031 2.978a797 797 0 0 0-.02 9.342q-.011 4.703-.051 9.407a485 485 0 0 0-.01 5.836l-.011 2.651.005 2.336C222 740 222 740 220 742c-2.338.227-2.338.227-5.227.195l-3.125-.02-3.273-.05-3.297-.027q-4.039-.036-8.078-.098l.083-3.877c.088-4.824.101-9.646.094-14.47q.01-3.11.08-6.22c.312-14.513-1.395-23.616-10.884-34.785-1.926-2.311-3.575-4.779-5.236-7.285l-1.729-2.528q-3.729-5.472-7.446-10.952a2169 2169 0 0 0-6.067-8.852q-1.949-2.859-3.895-5.718l-1.872-2.7-1.69-2.5-1.504-2.194C156 638 156 638 157 635"/><path fill="#C91E26" d="m623.344 634.672 2.527.015 2.629.063 2.629.016c3.594.044 6.435.089 9.871 1.234l1 86 56 1v17c-2.477 2.477-3.883 2.235-7.262 2.249l-2.217-.022h-2.336a1373 1373 0 0 1-7.662-.032l-5.305-.008c-4.659-.008-9.318-.028-13.977-.05-4.752-.02-9.504-.03-14.257-.04-9.328-.02-18.656-.055-27.984-.097q-.2-13.695-.391-27.39-.09-6.366-.182-12.73c-.13-8.954-.25-17.908-.347-26.862q-.062-5.8-.15-11.6-.083-5.342-.128-10.685c-.02-1.927-.056-3.854-.091-5.78l-.022-3.464-.038-3.011C616 638 616 638 617.392 636.179c2.097-1.538 3.368-1.539 5.952-1.507"/><path fill="#C51E26" d="M1032.324 342.578c4.4 3.61 7.293 7.26 9.676 12.422v3h2c.87 11.17-.583 17.447-7.676 26.027-6.048 6.577-12.85 9.587-21.707 10.211-10.29.204-18.791-.85-27.054-7.488-5.722-5.522-8.119-11.334-8.59-19.242.088-8.142 2.746-14.318 8.027-20.508 12.346-11.495 31.035-14.124 45.324-4.422m-40.133 11.64c-3.663 5.478-4.049 10.273-3.191 16.782 2.308 6.28 7.136 10.938 13 14 7.539 2.652 13.74 2.215 21-1 5.173-2.874 8.492-6.135 11.25-11.375 1.669-5.84 1.02-10.406-1.855-15.637-4.037-5.755-9.653-10.012-16.395-11.988-9.845-1.313-17.597 1.433-23.809 9.219"/><path fill="#C41E25" d="M1022.773 349.125c2.026 2.06 3.157 4.05 3.403 6.945-.26 3.13-.793 5.44-2.738 7.93l-1.438 1c1.835 4.74 3.92 9.364 6 14-2.098 1.865-3.723 2.922-6.437 3.688-3.172-.851-3.412-1.633-5.063-4.375l-1.23-2.2c-1.728-2.876-3.804-4.858-6.27-7.113l.188 3.688c-.021 3.889-.432 6.372-3.188 9.312-3.125.375-3.125.375-6 0-2.475-2.475-1.173-8.54-1.186-12.01v-2.2c-.001-2.215-.02-4.429-.039-6.644q-.005-2.102-.005-4.205l-.013-3.884C999 350 999 350 1001 348c6.452-1.427 15.96-2.563 21.773 1.125M1009 354c-.688 2.354-.688 2.354-1 5l2 3 6-1c-.27-2.437-.27-2.437-1-5-2.815-2.277-2.815-2.277-6-2"/><path fill="#0B0102" d="M38 396c1 2 1 2 .875 5.188 1.55 5.252 4.154 6.46 8.79 9.117 15.125 7.687 30.566 11.259 47.41 12.734l2.866.254c11.255.951 22.523 1.429 33.809 1.832l3.448.127c18.913.684 37.815.936 56.74.935l3.622.003c24.596-.002 48.943-1.189 73.44-3.377l3.66-.323c20.432-1.822 40.643-4.414 60.854-7.905A374 374 0 0 1 344 413c1.452 4.537 2.235 8.18 2 13l-3-1-1-8c-10.12.554-20.029 1.956-30.04 3.469-18.588 2.788-37.136 5.06-55.887 6.384q-3.132.224-6.264.459C80.917 439.634 80.917 439.634 39.117 408.879c-2.698-2.395-3.074-3.205-3.304-6.817C36 399 36 399 38 396"/><path fill="#0C0102" d="M734 413c19.681 2.737 19.681 2.737 27.186 4.081 41.459 7.384 83.782 9.117 125.802 9.05 3.944-.006 7.887 0 11.83.006 17.08.005 34.118-.383 51.182-1.137l2.634-.115c34.094-1.374 34.094-1.374 66.971-9.776C1023 414 1023 414 1025 415c-20.223 11.325-45.717 11.478-68.312 12.688l-3.471.189C879.846 431.757 806.376 429.163 734 416z"/><path fill="#0B0102" d="M725 443c6.16.664 11.832 2.328 17.75 4.125 41.68 12.312 83.843 20.276 126.948 25.59q3.342.415 6.681.848c38.536 4.955 79.528 7.811 116.621-5.563v2c-7.58 3.375-15.01 5.634-23.125 7.25l-2.454.493c-11.408 2.16-22.777 2.462-34.359 2.445l-2.253-.002c-58.23-.128-117.625-10.214-173.746-25.373l-2.294-.62c-10.046-2.727-19.928-5.8-29.769-9.193z"/><path fill="#070101" d="M353 443c1.819 2.383 3 3.958 3 7h-3l-2-4c-8.634 1.51-16.905 3.937-25.303 6.395C261.189 471.165 143.982 503.173 81 470c.586-6.152.586-6.152 1-8l2-1-1 7a1128 1128 0 0 0 6.898 2.074q3.2.956 6.391 1.946l3.461 1.043 3.172.972c10.408 2.707 21.12 3.354 31.828 3.34h1.979c44.569-.113 89.558-6.023 133.271-14.375l3.386-.645c22.934-4.425 45.429-10.644 67.9-16.972l2.62-.738c6.549-2.017 6.549-2.017 9.094-1.645"/><path fill="#080101" d="M708 466c6.333 1.986 12.371 4.38 18.438 7.063 41.475 17.993 85.216 32.546 129.937 39.75l2.101.338c11.589 1.73 23.2 2.01 34.899 1.974l3.98.012 3.856-.004 3.447-.004c3.505-.135 6.88-.576 10.342-1.129v2c-4.611 1.78-8.51 2.279-13.441 2.336l-2.157.025c-2.321.02-4.643.02-6.965.014l-2.426-.003c-58.81-.21-117.35-21.729-171.011-44.372q-3.372-1.408-6.746-2.812l-3.049-1.27L707 469z"/><path fill="#0B0102" d="M533.406 405.438C551.707 414.5 562.83 430.286 570 449c5.076 15.208 7.384 30.604 7.313 46.625l-.015 3.979C577.09 516.886 575.05 546.949 562 560c.64-3.854 1.807-7.152 3.313-10.75 12.722-32.653 12.595-73.16-1.24-105.412-3.896-8.399-8.779-16.02-15.073-22.838l-1.719-1.883c-11.071-10.828-27.263-16.084-42.5-16.21-2.67.065-5.158.156-7.781.593l-3 .5v-2c11.982-5.739 27.901-1.418 39.406 3.438"/><path fill="#080101" d="M688 485c2.19 1.1 2.19 1.1 4.422 2.484l2.566 1.565 2.762 1.701c17.248 10.362 34.88 19.485 53.438 27.25l1.937.811c12.81 5.337 25.739 10.073 39.125 13.751l3.25.9c18.993 5.206 18.993 5.206 38.5 7.538l-1 2c-7.269.284-13.901-.463-21-2l-3.129-.669c-41.868-9.308-86.156-26.558-120.969-51.917-3.71-1.808-5.95-1.332-9.902-.414 3.493-3.652 5.02-4.348 10-3"/><path fill="#130303" d="M371 467c2.813 2.375 2.813 2.375 5 5v2c-2.503-.431-3.7-.646-5.375-2.625-1.597-1.678-1.597-1.678-4.18-1.176-4.28.995-8.147 2.553-12.195 4.238q-2.707 1.102-5.418 2.2l-2.888 1.173C288.432 501.057 222.994 525.257 160 517c-.293-5.957-.293-5.957 0-8l3-3-1 9c48.725.758 92.959-6.938 139-23q2.84-.966 5.68-1.93c16.4-5.576 32.447-11.826 48.368-18.651l2.107-.892c1.886-.799 3.767-1.607 5.648-2.416 3.049-1.06 5.018-1.557 8.197-1.111"/><path fill="#080101" d="M650.348 494.445c2.64-.393 4.12-.35 6.652.555 3.592 3.147 6.574 6.682 9.615 10.354C690.275 533.468 727.442 551.838 763 559l-1 2c-40.466-1.07-77.668-32.2-104.532-59.387C656 500 656 500 655 498c-6.076-.113-11.964.307-18 1v-2c4.436-.929 8.94-1.513 13.348-2.555"/><path fill="#1D0405" d="M617 637h1c1.074 11.627 1.13 23.17 1.098 34.836l-.005 5.926q-.006 7.728-.024 15.456-.016 9.31-.023 18.621c-.01 9.387-.029 18.774-.046 28.161h77v2h-79l-.5-35.125-.158-10.88c-.205-14.456-.393-28.913-.43-43.372q-.01-2.924-.025-5.846l-.002-3.484-.006-3.042C616 638 616 638 617 637"/><path fill="#050001" d="M52 636h2v104c36.772 1.17 36.772 1.17 72-6 1.329-.352 2.66-.693 4-1-7.986 8.924-24.829 9.314-36 10-6.894.24-13.79.258-20.687.25l-2.673-.002q-3.795-.011-7.59-.045l-2.326-.013c-3.165-.042-5.7-.182-8.724-1.19z"/><path fill="#060001" d="M581 590c-24.426 12.337-47.653 14.281-74.687 14.625l-3.665.053q-10.722.153-21.446.259-6.32.063-12.643.14-11.802.142-23.605.208-4.128.025-8.256.074c-3.851.046-7.702.058-11.553.067l-3.468.053c-6.2-.017-9.95-.317-14.677-4.479l1-2c4.75 1.875 4.75 1.875 7 3 1.756.096 3.515.128 5.273.13l3.383.009 3.719-.006 3.889.004c4.245.004 8.49-.004 12.736-.012l4.386-.007c9.802-.016 19.603-.056 29.404-.107l6.48-.03c7.932-.036 15.862-.096 23.793-.19q3.635-.041 7.27-.061c20.97-.133 42.182-1.484 60.882-11.972C578 589 578 589 581 590"/><path fill="#040000" d="M156 636c4.447 1.513 6.36 5.004 8.813 8.75l2.933 4.371 1.586 2.382c2.354 3.523 4.744 7.022 7.14 10.516a453 453 0 0 1 3.807 5.683c2.936 4.425 5.817 8.54 9.534 12.345C204.42 695.939 200.523 719.836 200 740l20 1v1h-23l.168-9.281c.016-3.022.013-6.044.009-9.066q.01-3.11.08-6.22c.312-14.513-1.395-23.616-10.884-34.785-1.926-2.311-3.575-4.779-5.236-7.285l-1.729-2.528Q174.694 665.924 170 659l-2.036-3q-2.958-4.37-5.901-8.75l-1.847-2.725c-.555-.828-1.11-1.656-1.68-2.51l-1.489-2.21C156 638 156 638 156 636"/><path fill="#0A0102" d="M502 663c1.244 3.73.55 5.344-.437 9.125-3.636 16.453-2.048 32.645 6.312 47.5 6.815 10.17 16.34 17.11 28.25 20.313 12.799 2.458 24.787 2.08 36.875-2.938a444 444 0 0 1 6-2c-2.534 2.989-5.278 4.163-8.875 5.625-1.029.425-2.057.85-3.117 1.29-12.716 4.59-28.702 3.26-41.008-1.915-12.939-6.603-20.665-15.592-26-29-4.844-15.495-4.528-32.986 2-48"/><path fill="#110203" d="m712 636 3 1v103l83 1v1h-86z"/><path fill="#0C0202" d="M296 673c3.337 1.112 3.57 1.454 5.285 4.305l1.33 2.166 1.447 2.404c5.144 8.346 10.484 16.543 15.938 24.688l2.324 3.477q5.228 7.822 10.496 15.616l1.711 2.541q1.553 2.305 3.117 4.6C341 737.776 341 737.776 341 740h22v2c-3.13 1.043-5.344 1.133-8.625 1.125l-2.977.008L348 743l-2.098.21c-2.702.08-4.4-.145-6.902-1.21-3.565-3.77-6.1-8.135-8.75-12.562a936 936 0 0 0-2.424-3.875q-2.578-4.11-5.125-8.24c-4.132-6.656-8.478-13.173-12.8-19.706a3573 3573 0 0 1-6.682-10.148l-1.163-1.764A752 752 0 0 1 299 681l-1.764-2.717C296 676 296 676 296 673"/><path fill="#090101" d="M955 673c3.071 1.32 4.664 2.503 6.48 5.303l1.35 2.053 1.432 2.238 1.524 2.337q1.62 2.486 3.227 4.98c1.682 2.6 3.384 5.186 5.091 7.77 5.1 7.74 10.087 15.482 14.587 23.589 5.663 11.266 5.663 11.266 15.065 18.893 6.165 1.333 12.08 1.03 18.244-.163l1 2c-8.015 2.024-16.149 3.107-24 0-7.11-6.202-11.525-15.05-16.088-23.19-3.176-5.652-6.622-11.07-10.232-16.455l-1.61-2.403-3.188-4.743a1348 1348 0 0 1-7.456-11.217l-1.317-1.969c-1.964-2.994-3.37-5.527-4.109-9.023"/><path fill="#2E0709" d="m933 636 2 1v103h19l-1 2c-2.74.913-4.367 1.135-7.187 1.125l-2.168.008c-3.564-.18-7.104-.69-10.645-1.133z"/><path fill="#0A0102" d="M407 394h2l1 2c2.698.349 5.354.603 8.063.813 9.06.898 14.247 3.002 20.375 9.875 2.946 3.62 3.687 5.71 3.691 10.41l.01 3.23-.006 3.52.003 3.636q0 3.83-.006 7.659c-.005 3.851 0 7.703.007 11.554.003 12.804-.124 25.534-1.137 38.303h-2l.013-2.541q.06-11.873.09-23.746.015-6.105.048-12.208.032-5.893.039-11.787.004-2.246.021-4.49c.015-2.102.017-4.203.016-6.305l.014-3.62c-.437-6-2.349-10.322-6.362-14.694-6.42-5.498-14.042-6.063-22.192-6.14L408 399c-1.375-2.031-1.375-2.031-2-4z"/><path d="M421 495q4.157.21 8.313.438l2.38.119 2.295.127 2.11.11C438 496 438 496 441 497q.035 14.384.052 28.766.007 6.68.023 13.36.016 6.459.02 12.917.003 2.453.01 4.904c.082 25.523.082 25.523-5.105 33.053-1-2-1-2-.1-4.76L437 582c1.38-9.755 1.205-19.743 1.316-29.582l.063-4.653q.082-6.053.153-12.107.077-6.205.161-12.41.16-12.124.307-24.248c-1.429-.09-1.429-.09-2.887-.184l-3.8-.253-3.762-.247c-2.933-.26-5.685-.664-8.551-1.316z"/><path fill="#170304" d="M353 443c1.819 2.383 3 3.958 3 7h-3l-2-4c-6.195 1.083-12.178 2.56-18.207 4.32l-2.291.67-4.81 1.406c-24.064 7.007-48.457 12.951-73.254 16.729l-2.505.393c-4.068.547-6.387.508-9.933-1.518l2.373-.38c33.567-5.4 66.175-13.017 98.912-22.237l2.621-.738c6.549-2.017 6.549-2.017 9.094-1.645"/><path fill="#160304" d="M77 652a986 986 0 0 1 12.378-.22q2.1-.03 4.201-.082c9.542-.231 16.235.01 23.847 6.31l1.886 2.117 1.926 2.07c4.928 7.845 5.236 16.269 5.137 25.305l.035 3.223c-.032 8.766-1.28 16.949-6.41 24.277l-1-2a139 139 0 0 1 1.938-5.25c2.046-6.375 2.482-12.256 2.5-18.937l.029-2.77c-.106-8.69-1.751-17.246-7.467-24.043-6.084-5.332-10.204-7.05-18.297-7.316l-3.652-.127-3.801-.12-3.848-.13A3932 3932 0 0 0 77 654z"/><path fill="#100203" d="M411 716h45c10 20 10 20 10 24h22l1 2h-25l-10-23-43-1z"/><path fill="#0D0202" d="M842 716h45l11 23 21 1 1 2h-24c-5.957-11.914-5.957-11.914-7.002-14.013a464 464 0 0 0-2.76-5.385C885 720 885 720 885 718h-43z"/><path fill="#120203" d="M353 508c-28.506 14.405-58.44 26.905-89.812 33.438l-2.37.498c-6.548 1.253-13.792 2.517-19.943-.436L239 540c.564-3.27 1.5-4.826 4-7v6c13.313 6.656 37.208-4.085 50.375-8.437 18.173-6.058 36.319-13.011 53.266-22C350 507 350 507 353 508"/><path fill="#180304" d="M985 350c0 3 0 3-.973 4.742-2.637 5.797-1.875 14.232-.187 20.254 3.108 6.876 7.595 10.883 14.37 14.031 8.72 3.144 19.233 3.483 27.79-.027l3 1c-9.006 4.817-19.17 5.408-29.145 3.352-7.819-2.56-14.19-6.91-18.293-14.164-3.245-7.473-3.338-15.558-.562-23.188 1.189-2.193 2.472-4.014 4-6"/><path fill="#0D0202" d="M561.07 651.836c6.02 2.743 9.49 6.608 12.93 12.164l2 3 3.105-.656 4.082-.844 2.042-.434c3.646-.747 7.047-1.24 10.771-1.066v2c-3.247.702-6.498 1.384-9.75 2.063l-2.79.603-2.694.557-2.476.523c-2.425.269-4.01.098-6.29-.746-1.09-1.707-1.09-1.707-1.937-3.812-2.387-5.18-5.306-7.293-10.375-9.875-8.452-3.009-15.038-2.057-23.688-.313 7.122-5.46 16.486-5.501 25.07-3.164"/><path fill="#0E0202" d="M1023.313 345c6.015 3.4 11.058 8.538 13.687 15 .984 6.829-.095 11.386-4 17l-1-2 .938-2.187c1.868-4.947 1.628-9.09-.5-13.875-3.614-6.566-9.303-10.761-16.438-12.938-5.424-.466-10.669-.122-16 1 1-2 1-2 3.207-3.098 6.7-2.164 13.7-1.81 20.106 1.098"/><path fill="#1F0406" d="M576 481h1c.526 27.07-.775 52.207-13 77l-2 2c.64-3.854 1.807-7.152 3.313-10.75 4.446-11.4 6.826-23.187 8.092-35.337.505-4.823.505-4.823 1.595-5.913.158-1.998.251-4 .316-6.004l.127-3.682.12-3.877.13-3.888q.16-4.775.307-9.549"/><path fill="#0B0102" d="M864 660c3.16 2.63 4.329 5.673 5.883 9.426l.787 1.894q.82 1.981 1.628 3.967a797 797 0 0 0 2.495 6.024l1.59 3.865 1.45 3.528c1.106 3.123 1.739 6.019 2.167 9.296l-3 1-.777-2.543c-2.898-9.104-6.402-17.788-10.363-26.485l-1.165-2.613-1.062-2.329C863 663 863 663 864 660M433 660c3.354 2.68 4.483 6.25 5.918 10.152l.794 2.111q.827 2.205 1.641 4.415a916 916 0 0 0 2.528 6.742l1.6 4.295.766 2.03c1.222 3.34 1.753 5.639 1.753 9.255h-2a1676 1676 0 0 1-5.028-12.546 2708 2708 0 0 0-2.057-5.177 1578 1578 0 0 1-3.353-8.527l-1.109-2.778-1.012-2.613-.915-2.329C432 663 432 663 433 660"/><path fill="#120203" d="m359 544 2 1c-13.726 7.48-33.017 17.39-49 16-1-1-1-1-1.098-2.848L311 552l2-1 1 7c7.246.71 13.472-1.85 20.25-4.187l3.527-1.174c6.585-2.23 12.872-4.728 19.105-7.812z"/><path d="M162 506c1 2 1 2 0 9l41 1v1c-4.184.791-8.139 1.128-12.395 1.133l-3.646.004-3.772-.012-3.736.012c-6.57-.007-12.94-.25-19.451-1.137-.25-7.625-.25-7.625 2-11"/><path fill="#1A0405" d="M812 727c1 3 1 3-3 13h23c-1 2-1 2-2.633 2.617-3.104.502-6.098.515-9.242.508l-3.617.008c-3.261-.124-6.307-.516-9.508-1.133.568-5.54 2.629-10.037 5-15"/><path fill="#190304" d="M715 397h1c.596 13.952.296 25.968-5 39-1.253-3.758-.535-5.495.438-9.312 1.453-6.332 1.702-12.063 1.535-18.532.035-4.04.8-7.324 2.027-11.156"/><path d="M1000 349h1l1 30 5 1-1 2c-2 .043-4 .04-6 0-1.908-1.908-1.13-5.315-1.133-7.844l-.003-2.073q0-2.175.006-4.348c.005-2.226 0-4.45-.007-6.676q0-2.108.004-4.215l.004-3.9C999 350 999 350 1000 349"/><path fill="#220506" d="M440 552h1c.268 30.354.268 30.354-5 38l-1-2 .875-2.375c1.363-4.39 1.603-8.541 1.879-13.113C438 570 438 570 439 569c.237-2.859.422-5.699.563-8.562l.13-2.444q.159-2.997.307-5.994"/><path fill="#070101" d="M1009 367c2.188 0 2.188 0 5 1 1.973 2.5 3.459 5.22 5 8 1.67 3.224 1.67 3.224 4.625 3.688L1026 380c-2 2-2 2-4.312 2.625-2.688-.625-2.688-.625-3.95-2.238a167 167 0 0 1-2.468-4.282c-1.204-1.995-2.392-3.395-4.082-4.98L1009 369z"/><path fill="#1F0406" d="M441 450h1c.123 11.714-.172 23.314-1 35h-2q-.042-4.72-.062-9.437l-.026-2.721-.01-2.588-.016-2.396C439 466 439 466 440 465c.237-2.526.422-5.031.563-7.562l.13-2.155q.159-2.64.307-5.283"/><path fill="#160304" d="m378 737 1 3h21v2h-23z"/><path fill="#180304" d="m345 414 1 12-3-1-1-8-5-1v-2c3.287-.8 4.71-1.097 8 0"/><path fill="#160304" d="m421 495 17 1c-5.87 2.935-11.664 2.635-18 1z"/><path fill="#0D0202" d="M394.875 484.813c2.48.942 4.793 1.931 7.125 3.187v2c-3.086-.43-5.75-.893-8.625-2.125-2.649-.976-3.773-.839-6.375.125 4.076-4.261 4.076-4.261 7.875-3.187"/><path fill="#1C0405" d="m284 422-1 2c-4.692 1.422-10.732 2.021-15.246-.012L266 423c6.02-.61 11.947-1.135 18-1"/><path fill="#0D0202" d="M353 443c1.819 2.383 3 3.958 3 7h-3l-2-4h-5v-2c2.603-1.301 4.118-1.422 7-1"/><path fill="#110203" d="M1010 352c5.75.75 5.75.75 8 3 .125 2.625.125 2.625 0 5l-2 1-.687-2.375c-1.094-2.844-1.094-2.844-3.938-3.937L1009 354z"/><path fill="#1E0405" d="m839 469 10 1c-3.644 2.43-5.712 2.162-10 2z"/><path fill="#240506" d="M439 579c.836 2.376 1.184 3.544.223 5.922L436 590l-1-2c.777-2.164.777-2.164 1.938-4.625l1.152-2.477z"/></svg>