<?xml version="1.0" encoding="UTF-8"?>
<svg id="Layer_1" xmlns="http://www.w3.org/2000/svg" version="1.1" viewBox="0 0 1080 1080">
  <!-- Generator: Adobe Illustrator 29.7.1, SVG Export Plug-In . SVG Version: 2.1.1 Build 8)  -->
  <defs>
    <style>
      .st0 {
        fill: #515151;
      }
    </style>
  </defs>
  <path class="st0" d="M185.22,815.45v219.15h269.19v-219.15H185.22ZM240.29,856.88c-1.24,2.12-6.14,5.67-8.6,6.17-17.32,3.54-26.5-17.08-13.04-26.68,13.66-9.75,30.32,5.68,21.64,20.51ZM422.86,859.35c-12.86,12.47-33.91-4.61-22.75-20.11,12.04-16.74,38.44,4.9,22.75,20.11Z"/>
  <path class="st0" d="M641.71,815.45l-.76,106.92h42.09c5.97-3.94,15.73-23.48,23.93-14.83,5.45,5.75-.29,10.23-3.84,14.83h22.37c1.36,0,5.86,1.68,7.23,2.62,3.31,2.29,4.96,5.91,5.31,9.86,1.77,20-1.32,42.62-.09,62.9.1,3.83-5.97,10.31-9.42,10.31h-86.82l-.76,26.54h269.19v-219.15h-268.43ZM670.18,856.36c-5.24-8.02-.17-20.92,9.25-22.53,7.8-1.33,15.45,1.86,18.02,9.67,5.73,17.34-17.6,27.65-27.27,12.86ZM853.44,844.06c1.85-9.1,14.41-13.3,22.09-8.78.45.26,4.58,3.64,4.8,3.91.82,1.01,2.12,4.32,2.34,5.63,4.19,25.17-34.34,24.4-29.23-.76Z"/>
  <path class="st0" d="M631.52,284.61l-22.3-5.39c-1.58-11.61-7.09-22.2-12.86-32.24-.1-1.79,10.19-14.73,11.42-17.93.26-.69.8-1.22.23-2.01l-18.99-18.84-19,12.04c-10.43-5.5-20.98-11.16-32.82-13.07l-4.76-22.53-27.94-.04-4.75,22.54c-11.14,2.5-22.09,6.38-31.51,12.93-.9.4-1.58.04-2.41-.26-2.77-.98-16.75-12.08-18.25-11.4l-18.9,19.1,11.91,19.48c-3.43,6.45-7.04,13.02-9.69,19.83-1.24,3.18-2.52,12.04-5.11,13.1-3.6,1.47-19.06,3.01-20.61,5.16-1.77,8.55-.44,17.99-.74,26.8l23.32,5.5c1.59,11.21,6.84,22,12.84,31.48.4,2.62-10.03,15.12-11.4,18.69-.27.69-.8,1.23-.23,2.01l18.99,18.8,19.67-11.98c9.89,6.12,20.71,10.67,32.12,13.08l5.15,22.63,27.54-.12,4.79-22.51c11.17-2.46,21.93-6.64,31.51-12.93l2.41.26c4.68,2.14,12.35,9.29,16.71,10.68.81.27,1.48.5,2.26-.05l18.11-18.33-11.91-19.74c6.17-9.84,11.04-20.62,13.13-32.13.84-1.17,18.21-3.57,21.12-4.65,1.06-.4,1.09-.73,1.29-1.75.43-2.28.41-25.14-.34-26.21ZM541.11,333.82c-31.43,20.11-71.36-8.22-63.61-44.66,3.31-15.52,17.58-30.2,33.6-32.37,46.75-6.32,67.79,52.86,30.01,77.03Z"/>
  <path class="st0" d="M665.22,937.53v56.11h-172.51c-9.59,0-23.38-14.1-23.8-23.97l-.07-161.45c.21-2.11-3.07-7.19-4.95-7.19h-11.75l12.14-103.12c31.18,12.93,55.2,46.19,57.62,80.01,3.22,45.14-2.55,93.81.21,139.32.35,8.57,11.43,20.29,19.9,20.29h123.22Z"/>
  <path class="st0" d="M878.29,582.66c-1.72,14.89-3.9,29.7-8.75,43.94-15.85,46.52-58.27,85.59-110.46,75.63-52.52-10.02-83.71-68.05-87.06-117.69l206.26-1.89Z"/>
  <path class="st0" d="M422.57,582.66c-2.66,48.16-30.01,104.24-79.62,117.91-61.13,16.85-108.34-34.14-121.86-88.94-.66-2.66-5.7-27.91-3.58-28.23l205.06-.74Z"/>
  <path class="st0" d="M117.74,1034.6l-.03-255.95c2.59-28.49,18.61-56.27,42.26-72.24,1.83-1.24,14.35-8.82,15.4-7.72l12.14,102.37h-11.75c-1.33,0-4.93,4.64-4.93,5.69v227.86h-53.08Z"/>
  <path class="st0" d="M977.63,1034.6h-53.08v-227.86c0-1.05-3.6-5.69-4.93-5.69h-11.75l12.14-102.37c1.82-1.9,21.03,11.88,23.51,14.02,19.24,16.59,31.73,40.52,34.14,65.95l-.03,255.95Z"/>
  <path class="st0" d="M406.26,688.82c.82.26,1.33,1.73,1.17,2.62l-14.02,108.9-2.28.75-145.25-.03-13.65-111.47h18.58c.65,0,8.22,6.97,10,8.2,38.52,26.61,81.96,26.53,119.99-1.06,1.61-1.16,8.57-7.9,9.54-7.9h15.92Z"/>
  <path class="st0" d="M863.13,689.58l-13.65,111.47h-147.44s-14.08-112.23-14.08-112.23h17.82c.75,0,9.43,8.26,11.5,9.73,35.07,24.83,79.08,25.34,114.68,1.2,2.2-1.49,11.77-10.17,12.58-10.17h18.58Z"/>
  <path class="st0" d="M573.46,922.37v-142.93c2.8-35.11,25.17-67.72,57.63-81.52l12.89,103.12h-12.51c-1.76,0-4.93,5.4-4.93,7.2v114.12h-53.08Z"/>
  <path class="st0" d="M333.85,535.64c-1.13-11.17-.72-22.34-2.5-33.52-5.11-32.26-23.44-60.33-49.81-79.08,5.13-4.49,13.5-6.14,20.18-7.1,29.91-4.31,57.63,1.67,82.11,19.3,31.86,22.95,46.67,61.52,43.29,100.41h-93.27Z"/>
  <path class="st0" d="M762.28,535.64h-93.27c-6.31-47.56,20.65-94.64,64.7-113.12,23.8-9.99,56.52-11.19,80.12-.24-20.94,16.49-37.63,36.96-45.68,62.74-5.12,16.4-6.36,33.49-5.87,50.63Z"/>
  <path class="st0" d="M213.28,535.64c-.24-9.27-1.04-17.54.09-26.83,3.92-32.21,24.06-63.79,52.6-79.31,23.62,11.81,42.24,35.96,49.46,61.23,4,14.01,4.72,28.46,4.79,42.97.07.64-.74,1.93-1.16,1.93h-105.78Z"/>
  <path class="st0" d="M882.84,535.64h-106.92c-.08-10.29-.58-20.36.88-30.59,4.46-31.14,24.31-60.4,51.81-75.54,38.32,20.12,57.7,63.64,54.23,106.13Z"/>
  <rect class="st0" x="649.29" y="547.78" width="241.89" height="21.99"/>
  <rect class="st0" x="204.18" y="547.78" width="241.13" height="21.99"/>
  <path class="st0" d="M536.31,478.78c4.11,4.83,12.98,8.65,9.91,16.35-2.21,5.53-8.38,4.9-12.56,1.84-4.96-3.64-14.24-12.78-18.98-17.42-3.91-3.83-7.27-6.93-3.39-12.53,1.61-2.32,20.43-20.17,22.94-21.79,6.28-4.07,13.12-.28,11.9,7.34-.66,4.13-6.97,7.4-9.06,11.03,68.16-7.29,126.93-58.28,143.09-124.95,2.12-8.74,2.96-17.68,4.58-26.5,3.04-6.15,12.63-5.09,13.79,1.74s-3.27,25.7-5.32,33.27c-19.33,71.44-83.45,124.25-156.91,131.63Z"/>
  <path class="st0" d="M517.64,137.08c-3.41,3.35-14.35,15.2-18.07,15.68-3.99.52-7.22-.52-8.41-4.57-2.21-7.55,5.29-9.92,8.75-15.19-69.49,7.1-129.1,60.56-143.84,128.76-1.2,5.55-2.12,19.42-4.12,23.18-2.94,5.51-12.04,4.35-13.39-1.58-1.16-5.1,2-19.52,3.24-25.25,16.4-75.52,82.14-132.71,158.87-140.28-3.88-5.6-14.39-9.41-9-17.71,2.25-3.46,7.24-3.64,10.48-1.59,4.65,4.97,10.31,8.94,15.21,13.6,1.83,1.74,8.58,7.99,9.27,9.68,2.97,7.22-4.76,11.09-9,15.27Z"/>
  <path class="st0" d="M202.66,801.04l-13.7-107.98c9.22-3.17,19.14-3.84,28.87-3.49l13.65,111.47h-28.81Z"/>
  <path class="st0" d="M892.7,801.04h-28.81c4.8-37.11,8.93-74.46,14.52-111.36,3.79-.07,7.74-.36,11.55,0,3.04.28,12.55,1.99,15.11,3.09.57.25,1.06.39,1.24,1.08l-13.6,107.21Z"/>
  <path class="st0" d="M687.21,801.04h-28.81l-13.71-107.95c8.97-3.53,18.87-3.59,28.17-3.95l14.36,111.91Z"/>
  <path class="st0" d="M408.16,801.04l14.85-111.51c9.59-.73,18.37,1.13,27.62,3.08l-13.65,108.43h-28.81Z"/>
  <rect class="st0" x="680.38" y="937.53" width="43.22" height="56.11"/>
  <rect class="st0" x="573.46" y="1008.06" width="53.08" height="26.54"/>
</svg>