<?xml version="1.0" encoding="UTF-8"?>
<svg id="Layer_1" xmlns="http://www.w3.org/2000/svg" version="1.1" viewBox="0 0 256 256">
  <!-- Generator: Adobe Illustrator 29.5.1, SVG Export Plug-In . SVG Version: 2.1.0 Build 141)  -->
  <defs>
    <style>
      .st0 {
        fill: #564f4f;
      }
    </style>
  </defs>
  <path class="st0" d="M87.6,49.84c-21.62,2.37-19.34,37.53,5.9,33.44,19.29-3.13,16.09-35.85-5.9-33.44ZM194.91,49.84c-21.79,2.38-18.65,37.94,6.64,33.29,18.74-3.45,15.34-35.69-6.64-33.29ZM140.79,52.52c-14.99,2.02-19.42,22.31-7.18,30.65,7.79,5.31,18.44,3.51,23.74-4.34,8.4-12.47-1.82-28.3-16.56-26.31h0ZM103.75,117.91c-.02-7.87,4.62-14.57,8.87-20.8-15.22-14.11-41-11.16-51.61,6.89-1.57,2.67-5.93,10.91-3.01,13.11l45.75.81h0ZM183.69,117.8l45.61-.71c1.68-2.4-1.57-9.72-2.97-12.22-10.13-17.97-37.12-23-51.53-7.62-.34,1.35,4.17,7.24,5.24,9.56,1.64,3.54,2.58,7.27,3.65,10.98h0ZM110.98,119.57c1.48.76,3.07.93,4.72,1.05,18.91,1.38,40.01-.75,59.03-.47,5.04-2.97-5.05-17.42-8.09-20.31-19.61-18.66-53.72-7.32-55.65,19.74h-.01ZM74.51,190.63l6.52-2.63c17.6,2.99,38.08,12.65,55.33,14.82,10.77,1.35,15.43-2.46,24.09-7.38,23.73-13.5,46.78-29.15,69.66-43.86,6.52-12.95-1.84-21.61-15.53-19.07-9.66,1.79-47.87,25.19-58.79,31.67-5.75,3.42-5.2,6.68-14.32,6.06-3.95-.27-24.54-5.66-28.16-7.33-2.03-.93-2.9-2.14-2.32-4.46l1.65-1.97c10.09-1.66,38.49,16.77,39.92-2.67,1.02-13.85-17.28-13.86-27.3-17.04-7.76-2.46-19.04-7.97-26.61-8.88-13.67-1.64-34.15,15.43-46.26,21.59,0,0,22.12,41.15,22.12,41.15ZM36.13,142.9c-3.38.52-19.32,8.79-16.46,14.28l34.03,60.03c2.83,7.27,20.65-4.8,21.52-7.69.4-1.34.32-2.7-.02-4.03l-32.77-58.59c-1.31-1.99-3.72-4.38-6.3-3.98v-.02Z"/>
  <path class="st0" d="M74.51,190.63l-22.12-41.15c12.11-6.16,32.59-23.24,46.26-21.59,7.57.91,18.85,6.42,26.61,8.88,10.03,3.18,28.32,3.19,27.3,17.04-1.43,19.44-29.83,1-39.92,2.67l-1.65,1.97c-.58,2.32.29,3.53,2.32,4.46,3.62,1.66,24.21,7.06,28.16,7.33,9.12.62,8.57-2.65,14.32-6.06,10.92-6.48,49.13-29.88,58.79-31.67,13.69-2.54,22.05,6.12,15.53,19.07-22.87,14.71-45.92,30.36-69.66,43.86-8.66,4.92-13.32,8.74-24.09,7.38-17.25-2.17-37.73-11.83-55.33-14.82l-6.52,2.63h0Z"/>
  <path class="st0" d="M36.13,142.9c2.58-.4,4.99,2,6.3,3.98l32.77,58.59c.33,1.34.42,2.7.02,4.03-.87,2.89-18.69,14.96-21.52,7.69l-34.03-60.03c-2.86-5.48,13.08-13.76,16.46-14.28v.02ZM37.03,154.49c-3.36-3.39-9.3,1.62-6.08,5.62,3.43,4.24,10.16-1.5,6.08-5.62Z"/>
  <path class="st0" d="M110.98,119.57c1.93-27.06,36.05-38.4,55.65-19.74,3.04,2.89,13.13,17.34,8.09,20.31-19.01-.28-40.12,1.85-59.03.47-1.64-.12-3.24-.29-4.72-1.05h.01Z"/>
  <path class="st0" d="M103.75,117.91l-45.75-.81c-2.92-2.2,1.44-10.43,3.01-13.11,10.61-18.05,36.39-21.01,51.61-6.89-4.26,6.24-8.89,12.94-8.87,20.8h0Z"/>
  <path class="st0" d="M183.69,117.8c-1.07-3.71-2.02-7.45-3.65-10.98-1.07-2.32-5.58-8.21-5.24-9.56,14.4-15.38,41.4-10.35,51.53,7.62,1.41,2.5,4.65,9.81,2.97,12.22l-45.61.71h0Z"/>
  <path class="st0" d="M140.79,52.52c14.74-1.99,24.96,13.84,16.56,26.31-5.29,7.85-15.95,9.65-23.74,4.34-12.25-8.35-7.81-28.63,7.18-30.65h0Z"/>
  <path class="st0" d="M87.6,49.84c22-2.41,25.19,30.31,5.9,33.44-25.24,4.09-27.52-31.07-5.9-33.44Z"/>
  <path class="st0" d="M194.91,49.84c21.98-2.4,25.38,29.83,6.64,33.29-25.29,4.66-28.43-30.9-6.64-33.29Z"/>
  <path class="st0" d="M37.03,154.49c4.08,4.13-2.65,9.87-6.08,5.62-3.23-4,2.72-9.02,6.08-5.62Z"/>
</svg>